<svg width="47" height="62" viewBox="0 0 47 62" fill="none" xmlns="http://www.w3.org/2000/svg">
<path d="M42.5153 7.95083C35.1749 7.95083 28.424 5.28599 23.1912 0.876892C17.9504 5.28599 11.2075 7.95083 3.859 7.95083C2.55081 7.95083 1.26684 7.85393 -0.000976562 7.69242V33.7029C-0.000976562 47.5843 10.0204 59.2369 23.1912 61.7887C36.3539 59.245 46.3834 47.5843 46.3834 33.7029V7.69242C45.1156 7.85393 43.8235 7.95083 42.5153 7.95083ZM14.9787 26.1525H22.0041C23.0701 26.1525 23.9341 25.2884 23.9341 24.2225C23.9341 23.1566 23.0701 22.2925 22.0041 22.2925C20.9382 22.2925 20.0741 23.1566 20.0741 24.2225C20.0741 24.8927 19.5331 25.4338 18.8629 25.4338C18.1926 25.4338 17.6516 24.8927 17.6516 24.2225C17.6516 21.8241 19.6058 19.8699 22.0041 19.8699C24.4025 19.8699 26.3567 21.8241 26.3567 24.2225C26.3567 26.6209 24.4025 28.5751 22.0041 28.5751H14.9787C14.3084 28.5751 13.7674 28.034 13.7674 27.3638C13.7674 26.6935 14.3084 26.1525 14.9787 26.1525ZM22.0122 43.5466C19.6139 43.5466 17.6596 41.5924 17.6596 39.1941C17.6596 38.5238 18.2007 37.9828 18.8709 37.9828C19.5412 37.9828 20.0822 38.5238 20.0822 39.1941C20.0822 40.26 20.9463 41.124 22.0122 41.124C23.0781 41.124 23.9422 40.26 23.9422 39.1941C23.9422 38.1281 23.0781 37.2641 22.0122 37.2641H14.9867C14.3165 37.2641 13.7754 36.723 13.7754 36.0528C13.7754 35.3825 14.3165 34.8415 14.9867 34.8415H22.0122C24.4106 34.8415 26.3648 36.7957 26.3648 39.1941C26.3648 41.5924 24.4106 43.5466 22.0122 43.5466ZM32.397 32.9276H13.832C13.1617 32.9276 12.6207 32.3866 12.6207 31.7164C12.6207 31.0461 13.1617 30.5051 13.832 30.5051H32.397C33.4629 30.5051 34.327 29.641 34.327 28.5751C34.327 27.5091 33.4629 26.6451 32.397 26.6451C31.3311 26.6451 30.467 27.5091 30.467 28.5751C30.467 29.2453 29.926 29.7864 29.2557 29.7864C28.5855 29.7864 28.0444 29.2453 28.0444 28.5751C28.0444 26.1767 29.9987 24.2225 32.397 24.2225C34.7954 24.2225 36.7496 26.1767 36.7496 28.5751C36.7496 30.9734 34.7954 32.9276 32.397 32.9276Z" fill="#3057AE"/>
</svg>
