<svg width="86" height="28" viewBox="0 0 86 28" fill="none" xmlns="http://www.w3.org/2000/svg">
<path d="M20.8376 7.44067H27.2816C31.9229 7.44067 35.1023 10.3077 35.1023 14.7096C35.1023 19.1116 31.9202 21.9786 27.2816 21.9786H20.8376V7.44067ZM27.1195 19.2158C29.9361 19.2158 31.78 17.4922 31.78 14.7096C31.78 11.9271 29.9361 10.2035 27.1195 10.2035H24.1215V19.2158H27.1195Z" fill="#142E94"/>
<path d="M47.3665 17.3063H39.1199C39.425 18.6976 40.5791 19.5481 42.2389 19.5481C43.393 19.5481 44.1542 19.1228 44.5609 18.4469L47.2649 18.4807C46.9763 20.7845 44.124 22.1419 42.1564 22.1419C38.389 22.1419 35.9351 19.7114 35.9351 16.3882C35.9351 13.0452 38.4275 10.6372 41.7497 10.6372C44.9511 10.6372 47.4243 12.8396 47.4243 16.4304C47.427 16.6811 47.3858 17.0359 47.3665 17.3063ZM39.0787 15.4165H44.4482C44.2256 14.0055 43.1924 13.0902 41.7745 13.0902C40.3345 13.0902 39.3013 13.983 39.0787 15.4165Z" fill="#142E94"/>
<path d="M54.9426 21.9785L52.5518 18.5511L50.0787 21.9785H46.6355L50.8289 16.3487L46.7756 10.8062H50.3233L52.6315 14.0647L55.003 10.8062H58.3665L54.3133 16.267L58.5286 21.9785H54.9426Z" fill="#142E94"/>
<path d="M76.7066 15.6193V21.9955H73.7471V20.6043C73.159 21.621 72.0241 22.1617 70.4248 22.1617C67.8719 22.1617 66.3523 20.7085 66.3523 18.7765C66.3523 16.8022 67.7098 15.4335 71.0321 15.4335H73.5437C73.5437 14.0422 72.744 13.738 71.0403 13.738C69.8862 13.738 69.8642 13.7606 67.8005 13.7662L67.817 11.2315C70.1417 11.2343 69.7378 11.2202 71.4855 11.2315C74.8133 11.254 76.7066 12.2341 76.7066 15.6193ZM73.5465 17.9287V17.3232H71.3783C69.8999 17.3232 69.4328 17.8837 69.4328 18.6328C69.4328 19.4439 70.1005 19.9818 71.2162 19.9818C72.2687 19.9818 73.5465 19.3059 73.5465 17.9287Z" fill="#142E94"/>
<path d="M81.301 7.44067H78.1409V21.9786H81.301V7.44067Z" fill="#142E94"/>
<path d="M85.7747 7.44067H82.6145V21.9786H85.7747V7.44067Z" fill="#142E94"/>
<path d="M0 2.83323L4.78694 0L17.2324 7.36753L12.4455 10.2008L0 2.83323Z" fill="#142E94"/>
<path d="M12.4456 24.9245L17.2325 22.0856V7.36743L12.4456 10.2007V24.9245Z" fill="#4664AE"/>
<path d="M3.76733 15.3321L8.68618 12.4172L3.76733 9.51636V15.3321Z" fill="#4664AE"/>
<path d="M3.76733 15.3321L8.68618 18.2442V12.4172L3.76733 15.3321Z" fill="#142E94"/>
<path d="M59.4465 11.0484L61.1668 8.81787H62.6039L62.5517 11.2315H65.2667V13.7239H62.5517V18.2723C62.5517 19.227 63.0573 19.7481 63.9092 19.7481C64.3764 19.7481 64.8408 19.6016 65.1843 19.3312L66.0361 21.6153C65.3876 22.0941 64.4341 22.3222 63.464 22.3222C60.892 22.3222 59.3916 20.9732 59.3916 18.3146V13.7239L57.3608 13.6817L59.4465 11.0484Z" fill="#142E94"/>
<path d="M22.1431 26.158C22.2612 26.2143 22.3519 26.2932 22.4179 26.3974C22.4811 26.4988 22.514 26.6227 22.514 26.7635C22.514 26.9015 22.4811 27.0226 22.4179 27.1268C22.3547 27.231 22.264 27.3099 22.1431 27.3634C22.0249 27.4197 21.8848 27.445 21.7254 27.445H21.3599V27.9661H20.9395V26.0735H21.7254C21.8848 26.0735 22.0249 26.1016 22.1431 26.158ZM21.9892 27.0029C22.0551 26.9465 22.0881 26.8649 22.0881 26.7607C22.0881 26.6537 22.0551 26.572 21.9892 26.5157C21.9232 26.4593 21.827 26.4312 21.7006 26.4312H21.3599V27.0874H21.7006C21.827 27.0874 21.9232 27.0592 21.9892 27.0029Z" fill="#142E94"/>
<path d="M24.6134 27.9661L24.2644 27.4394H24.2425H23.877V27.9661H23.4565V26.0735H24.2425C24.4046 26.0735 24.542 26.1016 24.6601 26.158C24.7783 26.2143 24.869 26.2932 24.9322 26.3974C24.9954 26.4988 25.0284 26.6227 25.0284 26.7635C25.0284 26.9043 24.9954 27.0254 24.9322 27.1268C24.8662 27.2282 24.7756 27.307 24.6574 27.3606L25.0641 27.9689H24.6134V27.9661ZM24.5063 26.5157C24.4403 26.4593 24.3441 26.4312 24.2177 26.4312H23.877V27.0902H24.2177C24.3441 27.0902 24.4403 27.062 24.5063 27.0029C24.5722 26.9466 24.6052 26.8649 24.6052 26.7607C24.6052 26.6565 24.5722 26.5748 24.5063 26.5157Z" fill="#142E94"/>
<path d="M27.4135 27.6168V27.9689H26.0093V26.0735H27.3805V26.4255H26.427V26.8367H27.2678V27.1775H26.427V27.6168H27.4135Z" fill="#142E94"/>
<path d="M28.815 26.4255V26.9268H29.6531V27.2789H28.815V27.9661H28.3945V26.0735H29.7658V26.4255H28.815Z" fill="#142E94"/>
<path d="M31.8186 27.5605H30.9778L30.8184 27.9661H30.387L31.1949 26.0735H31.6098L32.4205 27.9661H31.9808L31.8186 27.5605ZM31.6867 27.2282L31.3982 26.5044L31.1097 27.2282H31.6867Z" fill="#142E94"/>
<path d="M34.8304 27.1551C34.8881 27.2339 34.9183 27.3353 34.9183 27.4508C34.9183 27.617 34.8579 27.7437 34.7342 27.8338C34.6105 27.9239 34.4319 27.969 34.1956 27.969H33.2585V26.0764H34.1434C34.3632 26.0764 34.5336 26.1215 34.6518 26.2088C34.7699 26.2961 34.8304 26.4172 34.8304 26.5693C34.8304 26.6622 34.8084 26.7439 34.7672 26.8143C34.726 26.8875 34.6655 26.9438 34.5886 26.9833C34.6902 27.0171 34.7727 27.0734 34.8304 27.1551ZM33.6735 26.4059V26.8509H34.0912C34.1956 26.8509 34.2725 26.8312 34.3275 26.7946C34.3797 26.758 34.4072 26.7016 34.4072 26.6256C34.4072 26.5524 34.3797 26.496 34.3275 26.4594C34.2753 26.4228 34.1956 26.4031 34.0912 26.4031H33.6735V26.4059ZM34.4127 27.5803C34.4677 27.5437 34.4979 27.4846 34.4979 27.4029C34.4979 27.2452 34.3852 27.1692 34.1626 27.1692H33.6735V27.6367H34.1626C34.2725 27.6367 34.355 27.6198 34.4127 27.5803Z" fill="#142E94"/>
<path d="M37.0397 27.9661L36.6907 27.4394H36.6687H36.3032V27.9661H35.8828V26.0735H36.6687C36.8309 26.0735 36.9683 26.1016 37.0864 26.158C37.2046 26.2143 37.2953 26.2932 37.3585 26.3974C37.4217 26.4988 37.4546 26.6227 37.4546 26.7635C37.4546 26.9043 37.4217 27.0254 37.3585 27.1268C37.2925 27.2282 37.2018 27.307 37.0837 27.3606L37.4904 27.9689H37.0397V27.9661ZM36.9353 26.5157C36.8693 26.4593 36.7731 26.4312 36.6467 26.4312H36.306V27.0902H36.6467C36.7731 27.0902 36.8693 27.062 36.9353 27.0029C37.0012 26.9466 37.0342 26.8649 37.0342 26.7607C37.0315 26.6565 36.9985 26.5748 36.9353 26.5157Z" fill="#142E94"/>
<path d="M38.8562 26.0735H38.4358V27.9661H38.8562V26.0735Z" fill="#142E94"/>
<path d="M40.3014 27.8732C40.1531 27.7887 40.0349 27.6733 39.9497 27.524C39.8645 27.3747 39.8206 27.2058 39.8206 27.0199C39.8206 26.834 39.8645 26.665 39.9497 26.5158C40.0349 26.3665 40.1531 26.251 40.3014 26.1665C40.4498 26.082 40.6175 26.0398 40.8043 26.0398C40.961 26.0398 41.1038 26.068 41.2303 26.1271C41.3567 26.1862 41.4638 26.2679 41.549 26.3749L41.2797 26.634C41.1561 26.4876 41.0049 26.4116 40.8236 26.4116C40.7109 26.4116 40.612 26.4369 40.524 26.4876C40.4361 26.5383 40.3674 26.6115 40.3179 26.7016C40.2685 26.7946 40.2437 26.8988 40.2437 27.0142C40.2437 27.1325 40.2685 27.2367 40.3179 27.3269C40.3674 27.4198 40.4361 27.4902 40.524 27.5409C40.612 27.5916 40.7136 27.6169 40.8236 27.6169C41.0049 27.6169 41.1561 27.5409 41.2797 27.3916L41.549 27.6507C41.4638 27.7606 41.3567 27.8451 41.2275 27.9014C41.0984 27.9577 40.9582 27.9887 40.7988 27.9887C40.6175 28 40.4498 27.9577 40.3014 27.8732Z" fill="#142E94"/>
<path d="M43.6377 27.5605H42.7969L42.6375 27.9661H42.2061L43.014 26.0735H43.4289L44.2395 27.9661H43.7999L43.6377 27.5605ZM43.5058 27.2282L43.2173 26.5044L42.9288 27.2282H43.5058Z" fill="#142E94"/>
<path d="M45.3603 26.4312H44.7805V26.0735H46.3606V26.4312H45.7808V27.9689H45.3603V26.4312Z" fill="#142E94"/>
<path d="M48.6388 27.6168V27.9689H47.2346V26.0735H48.6059V26.4255H47.6523V26.8367H48.4932V27.1775H47.6523V27.6168H48.6388Z" fill="#142E94"/>
<path d="M49.6199 26.0735H50.4443C50.6421 26.0735 50.8152 26.1129 50.9664 26.1918C51.1175 26.2706 51.2357 26.3805 51.3181 26.5241C51.4033 26.6677 51.4445 26.8311 51.4445 27.0226C51.4445 27.2113 51.4033 27.3775 51.3181 27.5211C51.2357 27.6647 51.1175 27.7746 50.9664 27.8534C50.8152 27.9323 50.6421 27.9717 50.4443 27.9717H49.6199V26.0735ZM50.4223 27.6084C50.6036 27.6084 50.7493 27.5549 50.8565 27.4507C50.9636 27.3465 51.0186 27.2028 51.0186 27.0226C51.0186 26.8423 50.9636 26.6987 50.8565 26.5945C50.7493 26.4875 50.6036 26.4368 50.4223 26.4368H50.0376V27.6112H50.4223V27.6084Z" fill="#142E94"/>
<path d="M55.1928 27.6168V27.9689H53.7886V26.0735H55.1598V26.4255H54.2063V26.8367H55.0471V27.1775H54.2063V27.6168H55.1928Z" fill="#142E94"/>
<path d="M57.2975 27.9661L56.8606 27.3099L56.4291 27.9661H55.9482L56.6187 27.0057L55.9812 26.0735H56.4594L56.877 26.6874L57.2865 26.0735H57.7399L57.1079 26.9888L57.7839 27.9661H57.2975Z" fill="#142E94"/>
<path d="M58.9519 26.4312H58.3721V26.0735H59.9521V26.4312H59.3696V27.9689H58.9519V26.4312Z" fill="#142E94"/>
<path d="M62.2275 27.6168V27.9689H60.8232V26.0735H62.1945V26.4255H61.2409V26.8367H62.0846V27.1775H61.2409V27.6168H62.2275Z" fill="#142E94"/>
<path d="M64.3654 27.9661L64.0164 27.4394H63.9944H63.6289V27.9661H63.2085V26.0735H63.9944C64.1565 26.0735 64.2939 26.1016 64.4121 26.158C64.5303 26.2143 64.6209 26.2932 64.6869 26.3974C64.7501 26.4988 64.7831 26.6227 64.7831 26.7635C64.7831 26.9043 64.7501 27.0254 64.6869 27.1268C64.6209 27.2282 64.5303 27.307 64.4121 27.3606L64.8188 27.9689H64.3654V27.9661ZM64.2582 26.5157C64.1923 26.4593 64.0961 26.4312 63.9697 26.4312H63.6289V27.0902H63.9697C64.0961 27.0902 64.1923 27.062 64.2582 27.0029C64.3242 26.9466 64.3571 26.8649 64.3571 26.7607C64.3571 26.6565 64.3242 26.5748 64.2582 26.5157Z" fill="#142E94"/>
<path d="M66.1817 26.0735H65.7612V27.9661H66.1817V26.0735Z" fill="#142E94"/>
<path d="M67.6272 27.8732C67.4761 27.7887 67.3579 27.6704 67.2727 27.524C67.1875 27.3747 67.1436 27.2086 67.1436 27.0227C67.1436 26.8368 67.1875 26.6706 67.2727 26.5214C67.3579 26.3721 67.4761 26.2566 67.6272 26.1721C67.7783 26.0877 67.9487 26.0454 68.1356 26.0454C68.3252 26.0454 68.4928 26.0877 68.6439 26.1721C68.7951 26.2566 68.9132 26.3749 68.9984 26.5214C69.0836 26.6706 69.1276 26.8368 69.1276 27.0227C69.1276 27.2086 69.0836 27.3747 68.9984 27.524C68.9132 27.6732 68.7951 27.7887 68.6439 27.8732C68.4928 27.9577 68.3252 27.9999 68.1356 27.9999C67.9487 27.9999 67.7783 27.9577 67.6272 27.8732ZM68.4268 27.5493C68.512 27.4986 68.5807 27.4254 68.6302 27.3353C68.6797 27.2423 68.7044 27.1381 68.7044 27.0227C68.7044 26.9044 68.6797 26.8002 68.6302 26.7101C68.5807 26.6171 68.512 26.5467 68.4268 26.496C68.3417 26.4453 68.2427 26.42 68.1356 26.42C68.0284 26.42 67.9322 26.4453 67.8443 26.496C67.7591 26.5467 67.6904 26.6199 67.6409 26.7101C67.5915 26.803 67.5667 26.9072 67.5667 27.0227C67.5667 27.141 67.5915 27.2452 67.6409 27.3353C67.6904 27.4282 67.7591 27.4986 67.8443 27.5493C67.9322 27.6 68.0284 27.6254 68.1356 27.6254C68.2455 27.6282 68.3417 27.6 68.4268 27.5493Z" fill="#142E94"/>
<path d="M71.2489 27.9661L70.8999 27.4394H70.878H70.5125V27.9661H70.092V26.0735H70.878C71.0401 26.0735 71.1775 26.1016 71.2956 26.158C71.4138 26.2143 71.5045 26.2932 71.5677 26.3974C71.6309 26.4988 71.6639 26.6227 71.6639 26.7635C71.6639 26.9043 71.6309 27.0254 71.5677 27.1268C71.5017 27.2282 71.4111 27.307 71.2929 27.3606L71.6996 27.9689H71.2489V27.9661ZM71.1418 26.5157C71.0758 26.4593 70.9796 26.4312 70.8532 26.4312H70.5125V27.0902H70.8532C70.9796 27.0902 71.0758 27.062 71.1418 27.0029C71.2077 26.9466 71.2407 26.8649 71.2407 26.7607C71.2407 26.6565 71.2077 26.5748 71.1418 26.5157Z" fill="#142E94"/>
<path d="M76.7668 26.0735L76.1732 27.9689H75.7225L75.3241 26.6846L74.9119 27.9689H74.464L73.8677 26.0735H74.3019L74.7113 27.4056L75.14 26.0735H75.5274L75.9424 27.4169L76.3656 26.0735H76.7668Z" fill="#142E94"/>
<path d="M78.7813 27.5605H77.9404L77.781 27.9661H77.3496L78.1575 26.0735H78.5724L79.3831 27.9661H78.9434L78.7813 27.5605ZM78.6494 27.2282L78.3609 26.5044L78.0723 27.2282H78.6494Z" fill="#142E94"/>
<path d="M80.2209 26.0735H80.6386V27.6112H81.5482V27.9689H80.2209V26.0735Z" fill="#142E94"/>
<path d="M82.4331 26.0735H82.8508V27.6112H83.7604V27.9689H82.4331V26.0735Z" fill="#142E94"/>
<path d="M84.813 27.9381C84.6783 27.8987 84.5711 27.8452 84.4915 27.7804L84.6343 27.4509C84.7113 27.51 84.8047 27.5579 84.9119 27.5945C85.0191 27.6311 85.1262 27.648 85.2334 27.648C85.3516 27.648 85.4422 27.6283 85.4972 27.5917C85.5549 27.5551 85.5824 27.5044 85.5824 27.4453C85.5824 27.4002 85.5659 27.3636 85.5329 27.3326C85.5 27.3016 85.456 27.2791 85.4038 27.2622C85.3516 27.2453 85.2801 27.2256 85.1894 27.2031C85.052 27.1693 84.9394 27.1355 84.8514 27.1017C84.7635 27.0679 84.6866 27.0115 84.6234 26.9355C84.5602 26.8595 84.5299 26.7581 84.5299 26.6313C84.5299 26.5215 84.5574 26.4229 84.6151 26.3328C84.6728 26.2427 84.758 26.1723 84.8734 26.1216C84.9888 26.0681 85.129 26.0427 85.2939 26.0427C85.4093 26.0427 85.5219 26.0568 85.6319 26.085C85.7418 26.1131 85.8407 26.1554 85.9231 26.2089L85.794 26.5412C85.6264 26.4426 85.4587 26.3919 85.2911 26.3919C85.1729 26.3919 85.0878 26.4117 85.0301 26.4511C84.9751 26.4905 84.9476 26.544 84.9476 26.6088C84.9476 26.6736 84.9806 26.7215 85.0438 26.7524C85.107 26.7834 85.2059 26.8144 85.3406 26.8454C85.478 26.8792 85.5906 26.913 85.6786 26.9496C85.7665 26.9834 85.8434 27.0369 85.9066 27.1129C85.9698 27.1862 86.0001 27.2875 86.0001 27.4143C86.0001 27.5213 85.9726 27.6199 85.9121 27.71C85.8544 27.8001 85.7665 27.8705 85.6511 27.9212C85.5357 27.9719 85.3955 28.0001 85.2279 28.0001C85.0878 28.0001 84.9476 27.9804 84.813 27.9381Z" fill="#142E94"/>
</svg>
