<svg width="80" height="80" viewBox="0 0 80 80" fill="none" xmlns="http://www.w3.org/2000/svg">
<path d="M78.4427 29.35L40.9574 16.2395C40.4555 16.0627 39.908 16.0627 39.4061 16.2395L1.92077 29.35C0.987524 29.6748 0.36536 30.5484 0.363286 31.5269C0.361213 32.5074 0.983376 33.381 1.91455 33.7078L39.3999 46.917C39.6529 47.0054 39.9184 47.0506 40.1817 47.0506C40.4451 47.0506 40.7106 47.0054 40.9636 46.917L78.4489 33.7078C79.3801 33.3789 80.0002 32.5053 80.0002 31.5269C79.9981 30.5484 79.3759 29.6748 78.4427 29.35Z" fill="#3057AE"/>
<path d="M40.1819 51.6759C39.3814 51.6759 38.5933 51.5403 37.8363 51.2751L16.7637 43.8503V54.0275C16.7637 56.5168 19.3851 58.6217 24.5532 60.2847C29.0576 61.7339 34.6073 62.5315 40.1819 62.5315C45.7565 62.5315 51.3062 61.7339 55.8106 60.2847C60.9787 58.6217 63.598 56.5168 63.598 54.0275V43.8503L42.5254 51.2772C41.7705 51.5423 40.9824 51.6759 40.1819 51.6759Z" fill="#3057AE"/>
<path d="M74.3959 49.5278V40.0454L69.7297 41.6899V49.5278C68.3236 50.3295 67.3779 51.8321 67.3779 53.5547C67.3779 55.2773 68.3257 56.7799 69.7297 57.5816V60.7245C69.7297 62.0031 70.7749 63.0371 72.0628 63.0371C73.3507 63.0371 74.3959 62.0031 74.3959 60.7245V57.5816C75.802 56.7799 76.7477 55.2773 76.7477 53.5547C76.7477 51.8321 75.802 50.3295 74.3959 49.5278Z" fill="#3057AE"/>
</svg>
