<svg width="70" height="71" viewBox="0 0 70 71" fill="none" xmlns="http://www.w3.org/2000/svg">
<path d="M67.9467 68.4264C65.9424 66.8911 63.7754 65.5827 61.4826 64.5245L53.2891 60.7415C52.8844 61.8967 51.8248 64.4821 49.7303 67.0811C48.8457 68.1804 47.8791 69.1538 46.8428 70.0015H70.0002L67.9467 68.4264Z" fill="#3057AE"/>
<path d="M20.2699 67.0797C18.1754 64.4806 17.1158 61.8953 16.7112 60.74L8.51759 64.523C6.22481 65.5812 4.05782 66.8896 2.05352 68.425L0 70H23.1574C22.1211 69.1523 21.1545 68.1789 20.2699 67.0797Z" fill="#3057AE"/>
<path d="M48.351 57.1486V56.6824C44.7375 59.7203 40.0795 61.5537 35.0004 61.5537C29.9213 61.5537 25.2647 59.7203 21.6498 56.6824V57.1486C21.6498 57.947 21.1822 58.6771 20.459 59.0121C20.459 59.0121 23.624 70.0015 35.0004 70.0015C46.3768 70.0015 49.5418 59.0121 49.5418 59.0121C48.8186 58.6771 48.351 57.9457 48.351 57.1486Z" fill="#3057AE"/>
<path d="M35 57.4493C44.1971 57.4493 51.6797 49.964 51.6797 40.7628V33.3759H18.3203V40.7628C18.3203 49.964 25.8029 57.4493 35 57.4493Z" fill="#3057AE"/>
<path d="M13.9941 29.2716H56.0051C57.1385 29.2716 58.0559 28.3528 58.0559 27.2208C58.0559 26.0874 57.1385 25.1687 56.0051 25.1687H54.2825V23.0468C54.2825 16.4337 50.9397 10.5889 45.8551 7.11219V15.7692C45.8551 16.9026 44.9377 17.8214 43.8043 17.8214C42.6723 17.8214 41.7535 16.9026 41.7535 15.7692V5.80789C41.7535 5.53445 41.8082 5.27468 41.9053 5.03679C40.3713 4.44617 38.743 4.04558 37.0504 3.86648V18.2862C37.0504 19.4196 36.1317 20.3384 34.9996 20.3384C33.8662 20.3384 32.9489 19.4196 32.9489 18.2862V3.86511C31.2563 4.04421 29.6293 4.4448 28.0953 5.03543C28.1924 5.27468 28.2471 5.53445 28.2471 5.80789V15.7692C28.2471 16.9026 27.3283 17.8214 26.1963 17.8214C25.0629 17.8214 24.1455 16.9026 24.1455 15.7692V7.11082C19.0609 10.5876 15.7168 16.4337 15.7168 23.0468V25.1687H13.9941C12.8621 25.1687 11.9434 26.0874 11.9434 27.2208C11.942 28.3528 12.8607 29.2716 13.9941 29.2716Z" fill="#3057AE"/>
<path d="M45.8561 5.80777C45.8561 4.67437 44.9387 3.75562 43.8053 3.75562C42.9467 3.75562 42.2111 4.28608 41.9062 5.03667C43.309 5.57671 44.6324 6.27534 45.8561 7.11206V5.80777Z" fill="#3057AE"/>
<path d="M26.1953 3.75562C25.0633 3.75562 24.1445 4.67437 24.1445 5.80777V7.11206C25.3682 6.27534 26.6916 5.57534 28.0943 5.03667C27.7908 4.28472 27.0553 3.75562 26.1953 3.75562Z" fill="#3057AE"/>
<path d="M37.0508 3.86504V2.05215C37.0508 0.918751 36.1334 0 35 0C33.8666 0 32.9492 0.918751 32.9492 2.05215V3.86504C33.6232 3.79258 34.3068 3.75567 35 3.75567C35.6932 3.75567 36.3768 3.79258 37.0508 3.86504Z" fill="#3057AE"/>
</svg>
