<svg width="47" height="62" viewBox="0 0 47 62" fill="none" xmlns="http://www.w3.org/2000/svg">
<path d="M42.9843 7.87706C35.6429 7.87706 28.8911 5.21187 23.6577 0.802185C18.4161 5.21187 11.6724 7.87706 4.32289 7.87706C3.01453 7.87706 1.73039 7.78015 0.462402 7.61862V33.6325C0.462402 47.5158 10.4851 59.1699 23.6577 61.722C36.8221 59.178 46.8529 47.5158 46.8529 33.6325V7.61862C45.5849 7.78015 44.2927 7.87706 42.9843 7.87706ZM26.0644 46.3851C29.7472 43.7279 29.2465 39.6252 26.1694 37.2184C24.2068 35.6839 24.6995 32.0173 24.6995 32.0173C21.9051 33.3418 21.1378 38.4056 21.1378 38.4056C19.8779 38.0584 20.0556 35.6516 20.0556 35.6516C20.0556 35.6516 15.5248 40.562 19.6679 45.3917C11.107 42.5811 12.0035 31.6538 16.9785 27.6964C17.1885 27.5268 17.3904 27.3572 17.5762 27.1795C21.8324 23.1252 20.6775 16.1472 20.6775 16.1472C20.6775 16.1472 27.2759 20.4762 27.6958 29.3036C27.6958 29.3036 30.4418 28.1164 29.723 23.6259C29.7311 23.6179 41.6275 36.8954 26.0644 46.3851Z" fill="#3057AE"/>
</svg>
