<svg width="119" height="38" viewBox="0 0 119 38" fill="none" xmlns="http://www.w3.org/2000/svg">
<path d="M28.8337 10.0981H37.7504C44.1726 10.0981 48.572 13.9891 48.572 19.9632C48.572 25.9372 44.1688 29.8282 37.7504 29.8282H28.8337V10.0981ZM37.526 26.0786C41.4235 26.0786 43.9749 23.7395 43.9749 19.9632C43.9749 16.1869 41.4235 13.8477 37.526 13.8477H33.3776V26.0786H37.526Z" fill="#142E94"/>
<path d="M65.5421 23.4872H54.1311C54.5532 25.3754 56.1502 26.5297 58.4468 26.5297C60.0438 26.5297 61.0971 25.9525 61.6599 25.0352L65.4014 25.0811C65.0022 28.2076 61.0553 30.0499 58.3328 30.0499C53.1197 30.0499 49.7241 26.7514 49.7241 22.2412C49.7241 17.7043 53.1729 14.4363 57.77 14.4363C62.1998 14.4363 65.622 17.4253 65.622 22.2985C65.6258 22.6387 65.5687 23.1203 65.5421 23.4872ZM54.0741 20.9226H61.504C61.196 19.0077 59.7663 17.7654 57.8042 17.7654C55.8118 17.7654 54.3821 18.9771 54.0741 20.9226Z" fill="#142E94"/>
<path d="M76.0252 29.8282L72.7171 25.1766L69.2949 29.8282H64.5305L70.333 22.1877L64.7244 14.6656H69.6333L72.8274 19.0879L76.1088 14.6656H80.763L75.1544 22.0768L80.9873 29.8282H76.0252Z" fill="#142E94"/>
<path d="M106.14 21.1977V29.8511H102.045V27.963C101.232 29.3428 99.6612 30.0766 97.4482 30.0766C93.9157 30.0766 91.813 28.1044 91.813 25.4824C91.813 22.803 93.6914 20.9455 98.2885 20.9455H101.764C101.764 19.0573 100.657 18.6445 98.2999 18.6445C96.7029 18.6445 96.6725 18.6751 93.8169 18.6827L93.8397 15.2428C97.0565 15.2466 96.4976 15.2275 98.9159 15.2428C103.521 15.2734 106.14 16.6035 106.14 21.1977ZM101.768 24.3319V23.5101H98.7676C96.7219 23.5101 96.0755 24.2707 96.0755 25.2874C96.0755 26.3882 96.9995 27.1183 98.5433 27.1183C99.9996 27.1183 101.768 26.2009 101.768 24.3319Z" fill="#142E94"/>
<path d="M112.498 10.0981H108.125V29.8282H112.498V10.0981Z" fill="#142E94"/>
<path d="M118.688 10.0981H114.315V29.8282H118.688V10.0981Z" fill="#142E94"/>
<path d="M0 3.8451L6.62379 0L23.8449 9.99879L17.2211 13.8439L0 3.8451Z" fill="#142E94"/>
<path d="M17.2209 33.8262L23.8447 29.9734V9.99878L17.2209 13.8439V33.8262Z" fill="#4664AE"/>
<path d="M5.21289 20.8079L12.0192 16.8519L5.21289 12.9151V20.8079Z" fill="#4664AE"/>
<path d="M5.21289 20.8079L12.0192 24.76V16.8519L5.21289 20.8079Z" fill="#142E94"/>
<path d="M82.2574 14.9944L84.6377 11.9672H86.6263L86.5541 15.2428H90.3108V18.6254H86.5541V24.7982C86.5541 26.094 87.2537 26.8011 88.4325 26.8011C89.0789 26.8011 89.7215 26.6023 90.1968 26.2354L91.3755 29.3352C90.4782 29.9849 89.1587 30.2945 87.8165 30.2945C84.2574 30.2945 82.1813 28.4637 82.1813 24.8556V18.6254L79.3713 18.5681L82.2574 14.9944Z" fill="#142E94"/>
<path d="M30.6398 35.5003C30.8033 35.5767 30.9288 35.6837 31.0201 35.8252C31.1075 35.9628 31.1531 36.1309 31.1531 36.322C31.1531 36.5093 31.1075 36.6737 31.0201 36.8151C30.9326 36.9565 30.8071 37.0635 30.6398 37.1362C30.4763 37.2126 30.2824 37.247 30.0619 37.247H29.5561V37.9541H28.9744V35.3856H30.0619C30.2824 35.3856 30.4763 35.4238 30.6398 35.5003ZM30.4269 36.6469C30.5181 36.5705 30.5638 36.4596 30.5638 36.3182C30.5638 36.173 30.5181 36.0621 30.4269 35.9857C30.3356 35.9093 30.2025 35.871 30.0276 35.871H29.5561V36.7616H30.0276C30.2025 36.7616 30.3356 36.7234 30.4269 36.6469Z" fill="#142E94"/>
<path d="M34.0581 37.9541L33.5752 37.2394H33.5448H33.039V37.9541H32.4573V35.3856H33.5448C33.7691 35.3856 33.9592 35.4238 34.1227 35.5003C34.2862 35.5767 34.4117 35.6837 34.4992 35.8252C34.5866 35.9628 34.6323 36.1309 34.6323 36.322C34.6323 36.5132 34.5866 36.6775 34.4992 36.8151C34.4079 36.9527 34.2824 37.0597 34.1189 37.1323L34.6817 37.9579H34.0581V37.9541ZM33.9098 35.9857C33.8185 35.9093 33.6855 35.871 33.5105 35.871H33.039V36.7654H33.5105C33.6855 36.7654 33.8185 36.7272 33.9098 36.6469C34.0011 36.5705 34.0467 36.4596 34.0467 36.3182C34.0467 36.1768 34.0011 36.066 33.9098 35.9857Z" fill="#142E94"/>
<path d="M37.9328 37.4802V37.9579H35.9897V35.3856H37.8871V35.8634H36.5677V36.4214H37.7313V36.8839H36.5677V37.4802H37.9328Z" fill="#142E94"/>
<path d="M39.8721 35.8634V36.5437H41.0318V37.0215H39.8721V37.9541H39.2903V35.3856H41.1877V35.8634H39.8721Z" fill="#142E94"/>
<path d="M44.0279 37.4037H42.8644L42.6439 37.9541H42.0469L43.1648 35.3856H43.7389L44.8607 37.9541H44.2523L44.0279 37.4037ZM43.8454 36.9527L43.4462 35.9704L43.0469 36.9527H43.8454Z" fill="#142E94"/>
<path d="M48.1955 36.8534C48.2753 36.9604 48.3172 37.098 48.3172 37.2547C48.3172 37.4802 48.2335 37.6522 48.0624 37.7745C47.8913 37.8968 47.6441 37.958 47.3171 37.958H46.0205V35.3895H47.2449C47.5491 35.3895 47.7848 35.4506 47.9483 35.5691C48.1118 35.6876 48.1955 35.8519 48.1955 36.0583C48.1955 36.1845 48.1651 36.2953 48.108 36.3909C48.051 36.4902 47.9673 36.5667 47.8609 36.6202C48.0016 36.6661 48.1156 36.7425 48.1955 36.8534ZM46.5947 35.8367V36.4406H47.1726C47.3171 36.4406 47.4236 36.4138 47.4996 36.3641C47.5719 36.3144 47.6099 36.238 47.6099 36.1348C47.6099 36.0354 47.5719 35.959 47.4996 35.9093C47.4274 35.8596 47.3171 35.8328 47.1726 35.8328H46.5947V35.8367ZM47.6175 37.4305C47.6936 37.3808 47.7354 37.3005 47.7354 37.1897C47.7354 36.9757 47.5795 36.8725 47.2715 36.8725H46.5947V37.5069H47.2715C47.4236 37.5069 47.5377 37.484 47.6175 37.4305Z" fill="#142E94"/>
<path d="M51.2527 37.9541L50.7698 37.2394H50.7393H50.2336V37.9541H49.6519V35.3856H50.7393C50.9637 35.3856 51.1538 35.4238 51.3173 35.5003C51.4808 35.5767 51.6063 35.6837 51.6937 35.8252C51.7812 35.9628 51.8268 36.1309 51.8268 36.322C51.8268 36.5132 51.7812 36.6775 51.6937 36.8151C51.6025 36.9527 51.477 37.0597 51.3135 37.1323L51.8763 37.9579H51.2527V37.9541ZM51.1082 35.9857C51.0169 35.9093 50.8838 35.871 50.7089 35.871H50.2374V36.7654H50.7089C50.8838 36.7654 51.0169 36.7272 51.1082 36.6469C51.1994 36.5705 51.2451 36.4596 51.2451 36.3182C51.2413 36.1768 51.1956 36.066 51.1082 35.9857Z" fill="#142E94"/>
<path d="M53.7661 35.3856H53.1843V37.9541H53.7661V35.3856Z" fill="#142E94"/>
<path d="M55.766 37.828C55.5607 37.7134 55.3972 37.5566 55.2793 37.3541C55.1614 37.1515 55.1006 36.9222 55.1006 36.6699C55.1006 36.4176 55.1614 36.1883 55.2793 35.9857C55.3972 35.7832 55.5607 35.6264 55.766 35.5118C55.9713 35.3971 56.2033 35.3398 56.4618 35.3398C56.6786 35.3398 56.8763 35.378 57.0512 35.4583C57.2261 35.5385 57.3744 35.6494 57.4923 35.7946L57.1197 36.1463C56.9485 35.9475 56.7394 35.8443 56.4885 35.8443C56.3326 35.8443 56.1957 35.8787 56.074 35.9475C55.9523 36.0163 55.8573 36.1157 55.7888 36.238C55.7204 36.3641 55.6862 36.5055 55.6862 36.6623C55.6862 36.8228 55.7204 36.9642 55.7888 37.0865C55.8573 37.2126 55.9523 37.3082 56.074 37.377C56.1957 37.4458 56.3364 37.4802 56.4885 37.4802C56.7394 37.4802 56.9485 37.377 57.1197 37.1744L57.4923 37.5261C57.3744 37.6751 57.2261 37.7898 57.0474 37.8662C56.8687 37.9427 56.6748 37.9847 56.4542 37.9847C56.2033 38 55.9713 37.9427 55.766 37.828Z" fill="#142E94"/>
<path d="M60.3822 37.4037H59.2186L58.9981 37.9541H58.4011L59.519 35.3856H60.0932L61.2149 37.9541H60.6065L60.3822 37.4037ZM60.1997 36.9527L59.8004 35.9704L59.4012 36.9527H60.1997Z" fill="#142E94"/>
<path d="M62.7662 35.871H61.9639V35.3856H64.1502V35.871H63.3479V37.9579H62.7662V35.871Z" fill="#142E94"/>
<path d="M67.3024 37.4802V37.9579H65.3594V35.3856H67.2568V35.8634H65.9373V36.4214H67.1009V36.8839H65.9373V37.4802H67.3024Z" fill="#142E94"/>
<path d="M68.6599 35.3856H69.8006C70.0744 35.3856 70.314 35.4391 70.5231 35.5462C70.7322 35.6532 70.8957 35.8022 71.0098 35.9972C71.1277 36.1921 71.1847 36.4138 71.1847 36.6737C71.1847 36.9298 71.1277 37.1553 71.0098 37.3502C70.8957 37.5451 70.7322 37.6942 70.5231 37.8012C70.314 37.9083 70.0744 37.9618 69.8006 37.9618H68.6599V35.3856ZM69.7702 37.4687C70.0212 37.4687 70.2227 37.3961 70.371 37.2547C70.5193 37.1132 70.5953 36.9183 70.5953 36.6737C70.5953 36.4291 70.5193 36.2341 70.371 36.0927C70.2227 35.9475 70.0212 35.8787 69.7702 35.8787H69.2379V37.4725H69.7702V37.4687Z" fill="#142E94"/>
<path d="M76.3713 37.4802V37.9579H74.4282V35.3856H76.3256V35.8634H75.0062V36.4214H76.1697V36.8839H75.0062V37.4802H76.3713Z" fill="#142E94"/>
<path d="M79.284 37.9541L78.6794 37.0635L78.0824 37.9541H77.417L78.3448 36.6508L77.4626 35.3856H78.1242L78.7022 36.2189L79.2688 35.3856H79.8961L79.0216 36.6278L79.957 37.9541H79.284Z" fill="#142E94"/>
<path d="M81.5731 35.871H80.7708V35.3856H82.9571V35.871H82.151V37.9579H81.5731V35.871Z" fill="#142E94"/>
<path d="M86.1054 37.4802V37.9579H84.1624V35.3856H86.0598V35.8634H84.7403V36.4214H85.9077V36.8839H84.7403V37.4802H86.1054Z" fill="#142E94"/>
<path d="M89.0637 37.9541L88.5808 37.2394H88.5504H88.0447V37.9541H87.4629V35.3856H88.5504C88.7747 35.3856 88.9648 35.4238 89.1283 35.5003C89.2918 35.5767 89.4173 35.6837 89.5086 35.8252C89.596 35.9628 89.6417 36.1309 89.6417 36.322C89.6417 36.5132 89.596 36.6775 89.5086 36.8151C89.4173 36.9527 89.2918 37.0597 89.1283 37.1323L89.6911 37.9579H89.0637V37.9541ZM88.9154 35.9857C88.8241 35.9093 88.6911 35.871 88.5161 35.871H88.0447V36.7654H88.5161C88.6911 36.7654 88.8241 36.7272 88.9154 36.6469C89.0067 36.5705 89.0523 36.4596 89.0523 36.3182C89.0523 36.1768 89.0067 36.066 88.9154 35.9857Z" fill="#142E94"/>
<path d="M91.5769 35.3856H90.9951V37.9541H91.5769V35.3856Z" fill="#142E94"/>
<path d="M93.5772 37.828C93.3681 37.7133 93.2045 37.5528 93.0867 37.354C92.9688 37.1515 92.908 36.926 92.908 36.6737C92.908 36.4214 92.9688 36.1959 93.0867 35.9934C93.2045 35.7908 93.3681 35.6341 93.5772 35.5194C93.7863 35.4047 94.0221 35.3474 94.2806 35.3474C94.543 35.3474 94.7749 35.4047 94.9841 35.5194C95.1932 35.6341 95.3567 35.7946 95.4746 35.9934C95.5925 36.1959 95.6533 36.4214 95.6533 36.6737C95.6533 36.926 95.5925 37.1515 95.4746 37.354C95.3567 37.5566 95.1932 37.7133 94.9841 37.828C94.7749 37.9427 94.543 38 94.2806 38C94.0221 38 93.7863 37.9427 93.5772 37.828ZM94.6837 37.3884C94.8016 37.3196 94.8966 37.2203 94.9651 37.098C95.0335 36.9718 95.0677 36.8304 95.0677 36.6737C95.0677 36.5132 95.0335 36.3717 94.9651 36.2494C94.8966 36.1233 94.8016 36.0278 94.6837 35.959C94.5658 35.8902 94.4289 35.8558 94.2806 35.8558C94.1323 35.8558 93.9993 35.8902 93.8776 35.959C93.7597 36.0278 93.6646 36.1271 93.5962 36.2494C93.5278 36.3756 93.4935 36.517 93.4935 36.6737C93.4935 36.8342 93.5278 36.9756 93.5962 37.098C93.6646 37.2241 93.7597 37.3196 93.8776 37.3884C93.9993 37.4572 94.1323 37.4916 94.2806 37.4916C94.4327 37.4955 94.5658 37.4572 94.6837 37.3884Z" fill="#142E94"/>
<path d="M98.5886 37.9541L98.1057 37.2394H98.0753H97.5696V37.9541H96.9878V35.3856H98.0753C98.2996 35.3856 98.4898 35.4238 98.6533 35.5003C98.8168 35.5767 98.9422 35.6837 99.0297 35.8252C99.1171 35.9628 99.1628 36.1309 99.1628 36.322C99.1628 36.5132 99.1171 36.6775 99.0297 36.8151C98.9384 36.9527 98.813 37.0597 98.6494 37.1323L99.2122 37.9579H98.5886V37.9541ZM98.4403 35.9857C98.3491 35.9093 98.216 35.871 98.0411 35.871H97.5696V36.7654H98.0411C98.216 36.7654 98.3491 36.7272 98.4403 36.6469C98.5316 36.5705 98.5772 36.4596 98.5772 36.3182C98.5772 36.1768 98.5316 36.066 98.4403 35.9857Z" fill="#142E94"/>
<path d="M106.224 35.3856L105.403 37.9579H104.779L104.228 36.215L103.657 37.9579H103.038L102.212 35.3856H102.813L103.38 37.1935L103.973 35.3856H104.509L105.083 37.2088L105.669 35.3856H106.224Z" fill="#142E94"/>
<path d="M109.011 37.4037H107.848L107.627 37.9541H107.03L108.148 35.3856H108.722L109.844 37.9541H109.235L109.011 37.4037ZM108.829 36.9527L108.429 35.9704L108.03 36.9527H108.829Z" fill="#142E94"/>
<path d="M111.004 35.3856H111.582V37.4725H112.84V37.9579H111.004V35.3856Z" fill="#142E94"/>
<path d="M114.064 35.3856H114.642V37.4725H115.901V37.9579H114.064V35.3856Z" fill="#142E94"/>
<path d="M117.357 37.9159C117.171 37.8624 117.023 37.7898 116.912 37.7019L117.11 37.2547C117.217 37.335 117.346 37.4 117.494 37.4496C117.642 37.4993 117.791 37.5223 117.939 37.5223C118.103 37.5223 118.228 37.4955 118.304 37.4458C118.384 37.3961 118.422 37.3273 118.422 37.2471C118.422 37.1859 118.399 37.1362 118.353 37.0942C118.308 37.0521 118.247 37.0216 118.175 36.9986C118.103 36.9757 118.004 36.9489 117.878 36.9184C117.688 36.8725 117.532 36.8266 117.41 36.7808C117.289 36.7349 117.182 36.6585 117.095 36.5553C117.007 36.4521 116.966 36.3145 116.966 36.1425C116.966 35.9934 117.004 35.8596 117.083 35.7373C117.163 35.615 117.281 35.5194 117.441 35.4506C117.601 35.378 117.795 35.3436 118.023 35.3436C118.182 35.3436 118.338 35.3627 118.49 35.401C118.642 35.4392 118.779 35.4965 118.893 35.5691L118.715 36.0201C118.483 35.8864 118.251 35.8176 118.019 35.8176C117.855 35.8176 117.737 35.8443 117.658 35.8978C117.582 35.9514 117.544 36.024 117.544 36.1119C117.544 36.1998 117.589 36.2648 117.677 36.3068C117.764 36.3489 117.901 36.3909 118.087 36.4329C118.277 36.4788 118.433 36.5247 118.555 36.5744C118.677 36.6202 118.783 36.6928 118.871 36.796C118.958 36.8954 119 37.033 119 37.205C119 37.3503 118.962 37.484 118.878 37.6063C118.798 37.7287 118.677 37.8242 118.517 37.893C118.357 37.9618 118.163 38 117.931 38C117.737 38 117.544 37.9733 117.357 37.9159Z" fill="#142E94"/>
</svg>
