<svg width="12" height="11" viewBox="0 0 12 11" fill="none" xmlns="http://www.w3.org/2000/svg">
<path d="M1.8643 0.5C1.03928 0.5 0.5 1.01263 0.5 1.68664C0.5 2.34567 1.02327 2.87295 1.83263 2.87295H1.84828C2.68931 2.87295 3.21276 2.34567 3.21276 1.68664C3.19692 1.01263 2.68931 0.5 1.8643 0.5Z" fill="#142E94"/>
<path d="M3.05375 3.81055H0.642212V10.6783H3.05375V3.81055Z" fill="#142E94"/>
<path d="M8.97339 3.64941C7.67243 3.64941 6.80008 4.80658 6.80008 4.80658V3.81063H4.38855V10.6783H6.80008V6.84294C6.80008 6.63759 6.81574 6.43274 6.87961 6.28584C7.05398 5.87581 7.45074 5.45111 8.11687 5.45111C8.98957 5.45111 9.33848 6.08099 9.33848 7.00416V10.6782H11.7498V6.74035C11.7498 4.63104 10.5599 3.64941 8.97339 3.64941Z" fill="#142E94"/>
</svg>
