<svg width="14" height="14" viewBox="0 0 14 14" fill="none" xmlns="http://www.w3.org/2000/svg">
<path d="M13.2164 4.34042C13.1854 3.62241 13.072 3.12866 12.9094 2.70103C12.7417 2.24695 12.4838 1.84048 12.1457 1.5025C11.8155 1.15923 11.4157 0.89265 10.9771 0.72366C10.5567 0.557579 10.077 0.441481 9.37513 0.409745C8.66832 0.375365 8.44375 0.367432 6.65103 0.367432C4.85805 0.367432 4.63373 0.375365 3.92925 0.407101C3.22762 0.438836 2.74513 0.554934 2.32725 0.72128C1.88353 0.89265 1.48632 1.15685 1.15605 1.50276C0.820611 1.84048 0.560373 2.24986 0.395237 2.69839C0.232685 3.12893 0.119235 3.61977 0.0882236 4.33777C0.0546279 5.06134 0.046875 5.29089 0.046875 7.12572C0.046875 8.96054 0.0546279 9.19009 0.0856393 9.91075C0.116651 10.6288 0.230101 11.1225 0.392653 11.5501C0.560373 12.0042 0.82087 12.4107 1.15605 12.7487C1.48632 13.0919 1.88611 13.3585 2.32467 13.5275C2.74513 13.6939 3.22503 13.8099 3.92667 13.8414C4.63089 13.8732 4.85546 13.8811 6.64844 13.8811C8.44116 13.8811 8.66574 13.8732 9.36996 13.8414C10.0716 13.8099 10.5541 13.6936 10.972 13.5275C11.8594 13.1763 12.561 12.4583 12.9042 11.5501C13.0668 11.1199 13.1802 10.6288 13.2112 9.91075C13.2423 9.19009 13.25 8.96028 13.25 7.12572C13.25 5.29089 13.2474 5.06134 13.2164 4.34042ZM12.0271 9.85812C11.9987 10.5182 11.8904 10.8744 11.8 11.1122C11.578 11.7009 11.1216 12.1682 10.5461 12.3954C10.314 12.4876 9.96305 12.5985 9.3206 12.6275C8.62413 12.6593 8.41506 12.6672 6.65309 12.6672C4.89113 12.6672 4.67947 12.6593 3.98559 12.6275C3.34055 12.5985 2.99245 12.4876 2.76012 12.3954C2.47378 12.2872 2.21328 12.1156 2.00189 11.891C1.78274 11.6718 1.61476 11.4079 1.50907 11.1148C1.41887 10.8773 1.31059 10.5182 1.28217 9.86076C1.25115 9.14804 1.2434 8.9341 1.2434 7.131C1.2434 5.32791 1.25115 5.11132 1.28217 4.40125C1.31059 3.74115 1.41887 3.38492 1.50907 3.14744C1.61476 2.85442 1.78274 2.58784 2.00447 2.37125C2.21845 2.14699 2.47637 1.97535 2.7627 1.86692C2.99477 1.77463 3.34572 1.66382 3.98817 1.63446C4.68464 1.60273 4.89371 1.59479 6.65568 1.59479C8.42023 1.59479 8.6293 1.60273 9.32318 1.63446C9.96822 1.66355 10.3163 1.77436 10.5487 1.86692C10.835 1.97509 11.0955 2.14672 11.3069 2.37125C11.5263 2.59049 11.694 2.85442 11.7997 3.14744C11.8899 3.38492 11.9982 3.7438 12.0269 4.40125C12.0579 5.11397 12.0656 5.32791 12.0656 7.131C12.0659 8.9341 12.0581 9.14513 12.0271 9.85812Z" fill="#142E94"/>
<path d="M6.65155 3.6543C4.77872 3.6543 3.25916 5.20906 3.25916 7.12587C3.25916 9.04241 4.77872 10.5974 6.65155 10.5974C8.52439 10.5974 10.0439 9.04241 10.0439 7.12587C10.0437 5.20906 8.52439 3.6543 6.65155 3.6543ZM6.65155 9.37775C5.43642 9.37775 4.45103 8.36936 4.45103 7.12587C4.45103 5.88238 5.43668 4.87399 6.65155 4.87399C7.86668 4.87399 8.85207 5.88238 8.85207 7.12587C8.85207 8.36936 7.86643 9.37775 6.65155 9.37775Z" fill="#142E94"/>
<path d="M10.9692 3.51685C10.9692 3.96458 10.6146 4.32716 10.1771 4.32716C9.73982 4.32716 9.38525 3.96432 9.38525 3.51685C9.38525 3.06912 9.73982 2.70654 10.1771 2.70654C10.6146 2.70654 10.9692 3.06912 10.9692 3.51685Z" fill="#142E94"/>
</svg>
