<svg width="60" height="60" viewBox="0 0 60 60" fill="none" xmlns="http://www.w3.org/2000/svg">
<path d="M59.2261 8.62519C59.0214 8.05956 58.5417 7.63769 57.9558 7.50644C57.3683 7.37519 56.7558 7.55332 56.3308 7.97988L52.6871 11.6236H50.4965L48.3777 9.50487V7.31425L52.0215 3.67052C52.4464 3.24552 52.6246 2.63302 52.4933 2.04552C52.3621 1.45802 51.9402 0.978338 51.3746 0.773652C46.62 -0.945092 41.2388 0.254903 37.6654 3.82677C34.8107 6.68144 33.4498 10.6627 33.9248 14.6392L14.6391 33.9235C10.6641 33.4485 6.68139 34.811 3.82673 37.6641C0.254901 41.2391 -0.945084 46.6188 0.773645 51.375C0.97833 51.9407 1.45801 52.3625 2.04394 52.4938C2.62987 52.625 3.24393 52.4469 3.66892 52.0219L7.31263 48.3782H9.50323L11.6219 50.4969V52.6875L7.97824 56.3313C7.55325 56.7563 7.37513 57.3688 7.50638 57.9563C7.63762 58.5438 8.05949 59.0219 8.62511 59.2266C10.0673 59.7484 11.5657 60 13.0532 60C16.475 60 19.8437 58.6625 22.3343 56.1735C25.189 53.3188 26.5515 49.3375 26.0749 45.361L45.3606 26.0751C49.3355 26.5501 53.3183 25.1876 56.173 22.3345C59.7464 18.7627 60.9448 13.3814 59.2261 8.62519Z" fill="#3057AE"/>
</svg>
