<svg width="152" height="48" viewBox="0 0 152 48" fill="none" xmlns="http://www.w3.org/2000/svg">
<g clip-path="url(#clip0)">
<path d="M36.8296 12.7556H48.2189C56.4221 12.7556 62.0415 17.6705 62.0415 25.2167C62.0415 32.7629 56.4173 37.6778 48.2189 37.6778H36.8296V12.7556ZM47.9324 32.9415C52.9106 32.9415 56.1696 29.9868 56.1696 25.2167C56.1696 20.4466 52.9106 17.4919 47.9324 17.4919H42.6335V32.9415H47.9324Z" fill="white"/>
<path d="M83.7174 29.6681H69.142C69.6811 32.0531 71.721 33.5112 74.6546 33.5112C76.6944 33.5112 78.0398 32.7821 78.7586 31.6234L83.5377 31.6813C83.0278 35.6306 77.9864 37.9577 74.5088 37.9577C67.8501 37.9577 63.5129 33.7912 63.5129 28.0941C63.5129 22.3633 67.9181 18.2354 73.79 18.2354C79.4483 18.2354 83.8194 22.0108 83.8194 28.1666C83.8243 28.5962 83.7514 29.2046 83.7174 29.6681ZM69.0692 26.4285H78.5595C78.1661 24.0096 76.3399 22.4405 73.8337 22.4405C71.2888 22.4405 69.4626 23.971 69.0692 26.4285Z" fill="white"/>
<path d="M97.1078 37.6777L92.8823 31.802L88.5112 37.6777H82.4255L89.8371 28.0265L82.6732 18.525H88.9434L93.0232 24.111L97.2147 18.525H103.159L95.9956 27.8865L103.446 37.6777H97.1078Z" fill="white"/>
<path d="M135.574 26.7761V37.7067H130.343V35.3217C129.304 37.0646 127.298 37.9915 124.471 37.9915C119.959 37.9915 117.273 35.5003 117.273 32.1883C117.273 28.8039 119.673 26.4574 125.545 26.4574H129.984C129.984 24.0724 128.57 23.551 125.559 23.551C123.519 23.551 123.48 23.5896 119.833 23.5993L119.862 19.2541C123.971 19.2589 123.257 19.2348 126.346 19.2541C132.228 19.2927 135.574 20.9728 135.574 26.7761ZM129.989 30.7351V29.697H126.157C123.544 29.697 122.718 30.6578 122.718 31.9421C122.718 33.3325 123.898 34.2547 125.87 34.2547C127.73 34.2547 129.989 33.096 129.989 30.7351Z" fill="white"/>
<path d="M143.695 12.7556H138.109V37.6778H143.695V12.7556Z" fill="white"/>
<path d="M151.602 12.7556H146.016V37.6778H151.602V12.7556Z" fill="white"/>
<path d="M0 4.85697L8.46063 0L30.4573 12.6301L21.9967 17.487L0 4.85697Z" fill="white"/>
<path d="M21.9966 42.7278L30.4572 37.8611V12.63L21.9966 17.487V42.7278Z" fill="#4664AE"/>
<path d="M6.65869 26.2837L15.3525 21.2867L6.65869 16.3138V26.2837Z" fill="#4664AE"/>
<path d="M6.65869 26.2836L15.3525 31.2758V21.2866L6.65869 26.2836Z" fill="white"/>
<path d="M105.068 18.9402L108.109 15.1165H110.649L110.556 19.2541H115.355V23.5268H110.556V31.3241C110.556 32.9608 111.45 33.8539 112.956 33.8539C113.781 33.8539 114.602 33.6029 115.209 33.1394L116.715 37.0549C115.569 37.8757 113.883 38.2667 112.169 38.2667C107.623 38.2667 104.971 35.9541 104.971 31.3965V23.5268L101.382 23.4544L105.068 18.9402Z" fill="white"/>
<path d="M39.1366 44.8425C39.3454 44.939 39.5057 45.0742 39.6223 45.2529C39.734 45.4267 39.7923 45.6391 39.7923 45.8805C39.7923 46.1171 39.734 46.3247 39.6223 46.5033C39.5106 46.6819 39.3503 46.8171 39.1366 46.9089C38.9277 47.0054 38.68 47.0489 38.3983 47.0489H37.7524V47.942H37.0093V44.6976H38.3983C38.68 44.6976 38.9277 44.7459 39.1366 44.8425ZM38.8646 46.2909C38.9812 46.1943 39.0394 46.0543 39.0394 45.8757C39.0394 45.6922 38.9812 45.5522 38.8646 45.4556C38.748 45.3591 38.578 45.3108 38.3546 45.3108H37.7524V46.4357H38.3546C38.578 46.4357 38.748 46.3874 38.8646 46.2909Z" fill="white"/>
<path d="M43.5027 47.9421L42.8859 47.0392H42.8471H42.2011V47.9421H41.458V44.6976H42.8471C43.1336 44.6976 43.3765 44.7459 43.5853 44.8425C43.7942 44.939 43.9544 45.0742 44.0661 45.2529C44.1779 45.4267 44.2361 45.6391 44.2361 45.8805C44.2361 46.1219 44.1779 46.3295 44.0661 46.5033C43.9496 46.6771 43.7893 46.8123 43.5805 46.904L44.2993 47.9469H43.5027V47.9421ZM43.3133 45.4556C43.1968 45.3591 43.0268 45.3108 42.8034 45.3108H42.2011V46.4405H42.8034C43.0268 46.4405 43.1968 46.3923 43.3133 46.2909C43.4299 46.1943 43.4882 46.0543 43.4882 45.8757C43.4882 45.697 43.4299 45.557 43.3133 45.4556Z" fill="white"/>
<path d="M48.4521 47.3434V47.9469H45.9702V44.6976H48.3938V45.3011H46.7085V46.006H48.1947V46.5902H46.7085V47.3434H48.4521Z" fill="white"/>
<path d="M50.9289 45.3011V46.1605H52.4102V46.764H50.9289V47.942H50.1858V44.6976H52.6094V45.3011H50.9289Z" fill="white"/>
<path d="M56.2375 47.2468H54.7513L54.4696 47.942H53.707L55.1349 44.6976H55.8683L57.3011 47.942H56.524L56.2375 47.2468ZM56.0043 46.6771L55.4944 45.4363L54.9844 46.6771H56.0043Z" fill="white"/>
<path d="M61.5606 46.5516C61.6626 46.6868 61.716 46.8606 61.716 47.0586C61.716 47.3434 61.6092 47.5607 61.3906 47.7152C61.1721 47.8697 60.8564 47.9469 60.4387 47.9469H58.7825V44.7025H60.3464C60.7349 44.7025 61.0361 44.7798 61.2449 44.9294C61.4537 45.0791 61.5606 45.2867 61.5606 45.5474C61.5606 45.7067 61.5217 45.8468 61.4489 45.9675C61.376 46.093 61.2692 46.1895 61.1332 46.2571C61.3129 46.3151 61.4586 46.4116 61.5606 46.5516ZM59.5159 45.2674V46.0302H60.2541C60.4387 46.0302 60.5747 45.9964 60.6718 45.9337C60.7641 45.8709 60.8126 45.7743 60.8126 45.644C60.8126 45.5184 60.7641 45.4219 60.6718 45.3591C60.5795 45.2964 60.4387 45.2626 60.2541 45.2626H59.5159V45.2674ZM60.8224 47.2807C60.9195 47.2179 60.9729 47.1165 60.9729 46.9765C60.9729 46.7061 60.7738 46.5758 60.3804 46.5758H59.5159V47.3772H60.3804C60.5747 47.3772 60.7204 47.3483 60.8224 47.2807Z" fill="white"/>
<path d="M65.4656 47.9421L64.8488 47.0392H64.81H64.164V47.9421H63.4209V44.6976H64.81C65.0965 44.6976 65.3394 44.7459 65.5482 44.8425C65.757 44.939 65.9173 45.0742 66.029 45.2529C66.1407 45.4267 66.199 45.6391 66.199 45.8805C66.199 46.1219 66.1407 46.3295 66.029 46.5033C65.9125 46.6771 65.7522 46.8123 65.5433 46.904L66.2622 47.9469H65.4656V47.9421ZM65.2811 45.4556C65.1645 45.3591 64.9945 45.3108 64.7711 45.3108H64.1689V46.4405H64.7711C64.9945 46.4405 65.1645 46.3923 65.2811 46.2909C65.3976 46.1943 65.4559 46.0543 65.4559 45.8757C65.4511 45.697 65.3928 45.557 65.2811 45.4556Z" fill="white"/>
<path d="M68.676 44.6976H67.9329V47.942H68.676V44.6976Z" fill="white"/>
<path d="M71.2306 47.7828C70.9683 47.638 70.7595 47.44 70.6089 47.1841C70.4583 46.9282 70.3806 46.6386 70.3806 46.3199C70.3806 46.0013 70.4583 45.7116 70.6089 45.4557C70.7595 45.1998 70.9683 45.0019 71.2306 44.857C71.4928 44.7122 71.7891 44.6398 72.1194 44.6398C72.3962 44.6398 72.6488 44.688 72.8722 44.7894C73.0956 44.8908 73.285 45.0308 73.4356 45.2143L72.9596 45.6585C72.741 45.4074 72.4739 45.2771 72.1534 45.2771C71.9542 45.2771 71.7794 45.3205 71.624 45.4074C71.4685 45.4943 71.3471 45.6199 71.2597 45.7744C71.1723 45.9337 71.1286 46.1123 71.1286 46.3103C71.1286 46.513 71.1723 46.6917 71.2597 46.8462C71.3471 47.0055 71.4685 47.1262 71.624 47.2131C71.7794 47.3 71.9591 47.3435 72.1534 47.3435C72.4739 47.3435 72.741 47.2131 72.9596 46.9572L73.4356 47.4014C73.285 47.5897 73.0956 47.7345 72.8673 47.8311C72.639 47.9276 72.3913 47.9807 72.1097 47.9807C71.7891 48.0001 71.4928 47.9276 71.2306 47.7828Z" fill="white"/>
<path d="M77.1269 47.2468H75.6407L75.359 47.942H74.5964L76.0243 44.6976H76.7577L78.1905 47.942H77.4134L77.1269 47.2468ZM76.8937 46.6771L76.3838 45.4363L75.8738 46.6771H76.8937Z" fill="white"/>
<path d="M80.172 45.3108H79.1472V44.6976H81.9399V45.3108H80.9151V47.9469H80.172V45.3108Z" fill="white"/>
<path d="M85.9662 47.3434V47.9469H83.4844V44.6976H85.908V45.3011H84.2226V46.006H85.7088V46.5902H84.2226V47.3434H85.9662Z" fill="white"/>
<path d="M87.7002 44.6976H89.1572C89.5069 44.6976 89.8129 44.7652 90.08 44.9004C90.3472 45.0356 90.556 45.2239 90.7017 45.4701C90.8523 45.7163 90.9251 45.9964 90.9251 46.3247C90.9251 46.6481 90.8523 46.933 90.7017 47.1792C90.556 47.4255 90.3472 47.6137 90.08 47.7489C89.8129 47.8841 89.5069 47.9517 89.1572 47.9517H87.7002V44.6976ZM89.1184 47.3289C89.4389 47.3289 89.6964 47.2372 89.8858 47.0585C90.0752 46.8799 90.1723 46.6337 90.1723 46.3247C90.1723 46.0157 90.0752 45.7694 89.8858 45.5908C89.6964 45.4073 89.4389 45.3204 89.1184 45.3204H88.4384V47.3337H89.1184V47.3289Z" fill="white"/>
<path d="M97.55 47.3434V47.9469H95.0681V44.6976H97.4917V45.3011H95.8064V46.006H97.2926V46.5902H95.8064V47.3434H97.55Z" fill="white"/>
<path d="M101.27 47.942L100.498 46.8171L99.7354 47.942H98.8855L100.071 46.2957L98.9438 44.6976H99.7889L100.527 45.7501L101.251 44.6976H102.052L100.935 46.2667L102.13 47.942H101.27Z" fill="white"/>
<path d="M104.194 45.3108H103.169V44.6976H105.962V45.3108H104.932V47.9469H104.194V45.3108Z" fill="white"/>
<path d="M109.983 47.3434V47.9469H107.501V44.6976H109.925V45.3011H108.24V46.006H109.731V46.5902H108.24V47.3434H109.983Z" fill="white"/>
<path d="M113.762 47.9421L113.145 47.0392H113.106H112.46V47.9421H111.717V44.6976H113.106C113.393 44.6976 113.636 44.7459 113.845 44.8425C114.053 44.939 114.214 45.0742 114.33 45.2529C114.442 45.4267 114.5 45.6391 114.5 45.8805C114.5 46.1219 114.442 46.3295 114.33 46.5033C114.214 46.6771 114.053 46.8123 113.845 46.904L114.563 47.9469H113.762V47.9421ZM113.573 45.4556C113.456 45.3591 113.286 45.3108 113.063 45.3108H112.46V46.4405H113.063C113.286 46.4405 113.456 46.3923 113.573 46.2909C113.689 46.1943 113.747 46.0543 113.747 45.8757C113.747 45.697 113.689 45.557 113.573 45.4556Z" fill="white"/>
<path d="M116.972 44.6976H116.229V47.942H116.972V44.6976Z" fill="white"/>
<path d="M119.527 47.7828C119.26 47.6379 119.051 47.4352 118.901 47.1841C118.75 46.9282 118.672 46.6434 118.672 46.3247C118.672 46.0061 118.75 45.7212 118.901 45.4653C119.051 45.2095 119.26 45.0115 119.527 44.8667C119.794 44.7218 120.095 44.6494 120.426 44.6494C120.761 44.6494 121.057 44.7218 121.324 44.8667C121.591 45.0115 121.8 45.2143 121.951 45.4653C122.101 45.7212 122.179 46.0061 122.179 46.3247C122.179 46.6434 122.101 46.9282 121.951 47.1841C121.8 47.44 121.591 47.6379 121.324 47.7828C121.057 47.9276 120.761 48 120.426 48C120.095 48 119.794 47.9276 119.527 47.7828ZM120.941 47.2276C121.091 47.1407 121.213 47.0151 121.3 46.8606C121.387 46.7013 121.431 46.5227 121.431 46.3247C121.431 46.1219 121.387 45.9433 121.3 45.7888C121.213 45.6295 121.091 45.5088 120.941 45.4219C120.79 45.335 120.615 45.2915 120.426 45.2915C120.236 45.2915 120.066 45.335 119.911 45.4219C119.76 45.5088 119.639 45.6343 119.551 45.7888C119.464 45.9481 119.42 46.1268 119.42 46.3247C119.42 46.5275 119.464 46.7061 119.551 46.8606C119.639 47.02 119.76 47.1407 119.911 47.2276C120.066 47.3145 120.236 47.3579 120.426 47.3579C120.62 47.3627 120.79 47.3145 120.941 47.2276Z" fill="white"/>
<path d="M125.928 47.9421L125.311 47.0392H125.273H124.627V47.9421H123.884V44.6976H125.273C125.559 44.6976 125.802 44.7459 126.011 44.8425C126.22 44.939 126.38 45.0742 126.492 45.2529C126.603 45.4267 126.662 45.6391 126.662 45.8805C126.662 46.1219 126.603 46.3295 126.492 46.5033C126.375 46.6771 126.215 46.8123 126.006 46.904L126.725 47.9469H125.928V47.9421ZM125.739 45.4556C125.622 45.3591 125.452 45.3108 125.229 45.3108H124.627V46.4405H125.229C125.452 46.4405 125.622 46.3923 125.739 46.2909C125.855 46.1943 125.914 46.0543 125.914 45.8757C125.914 45.697 125.855 45.557 125.739 45.4556Z" fill="white"/>
<path d="M135.681 44.6976L134.632 47.9469H133.835L133.131 45.7453L132.402 47.9469H131.611L130.557 44.6976H131.324L132.048 46.9813L132.806 44.6976H133.49L134.224 47.0006L134.972 44.6976H135.681Z" fill="white"/>
<path d="M139.241 47.2468H137.755L137.473 47.942H136.711L138.139 44.6976H138.872L140.305 47.942H139.528L139.241 47.2468ZM139.008 46.6771L138.498 45.4363L137.988 46.6771H139.008Z" fill="white"/>
<path d="M141.786 44.6976H142.524V47.3337H144.132V47.9469H141.786V44.6976Z" fill="white"/>
<path d="M145.696 44.6976H146.434V47.3337H148.042V47.9469H145.696V44.6976Z" fill="white"/>
<path d="M149.902 47.8938C149.664 47.8262 149.474 47.7345 149.333 47.6234L149.586 47.0585C149.722 47.1599 149.887 47.242 150.077 47.3048C150.266 47.3675 150.455 47.3965 150.645 47.3965C150.854 47.3965 151.014 47.3627 151.111 47.2999C151.213 47.2372 151.262 47.1503 151.262 47.0489C151.262 46.9716 151.233 46.9089 151.174 46.8558C151.116 46.8026 151.038 46.764 150.946 46.7351C150.854 46.7061 150.727 46.6723 150.567 46.6337C150.324 46.5757 150.125 46.5178 149.97 46.4599C149.814 46.4019 149.678 46.3054 149.567 46.175C149.455 46.0447 149.401 45.8708 149.401 45.6536C149.401 45.4653 149.45 45.2963 149.552 45.1418C149.654 44.9873 149.805 44.8666 150.009 44.7797C150.213 44.688 150.46 44.6445 150.752 44.6445C150.956 44.6445 151.155 44.6687 151.349 44.717C151.543 44.7652 151.718 44.8376 151.864 44.9294L151.636 45.4991C151.339 45.3301 151.043 45.2432 150.747 45.2432C150.538 45.2432 150.387 45.277 150.285 45.3446C150.188 45.4122 150.14 45.5039 150.14 45.615C150.14 45.726 150.198 45.8081 150.31 45.8612C150.421 45.9143 150.596 45.9674 150.834 46.0205C151.077 46.0784 151.276 46.1364 151.432 46.1991C151.587 46.2571 151.723 46.3488 151.835 46.4792C151.946 46.6047 152 46.7785 152 46.9958C152 47.1792 151.951 47.3482 151.844 47.5027C151.742 47.6572 151.587 47.7779 151.383 47.8648C151.179 47.9517 150.931 48 150.635 48C150.387 48 150.14 47.9662 149.902 47.8938Z" fill="white"/>
</g>
<defs>
<clipPath id="clip0">
<rect width="152" height="48" fill="white"/>
</clipPath>
</defs>
</svg>
