<svg width="104" height="33" viewBox="0 0 104 33" fill="none" xmlns="http://www.w3.org/2000/svg">
<path d="M25.1991 8.76941H32.9918C38.6045 8.76941 42.4494 12.1484 42.4494 17.3364C42.4494 22.5244 38.6012 25.9034 32.9918 25.9034H25.1991V8.76941ZM32.7957 22.6472C36.2019 22.6472 38.4317 20.6158 38.4317 17.3364C38.4317 14.057 36.2019 12.0256 32.7957 12.0256H29.1702V22.6472H32.7957Z" fill="white"/>
<path d="M57.2804 20.3969H47.3078C47.6766 22.0366 49.0724 23.039 51.0795 23.039C52.4752 23.039 53.3957 22.5378 53.8875 21.7411L57.1575 21.781C56.8085 24.4961 53.3592 26.096 50.9798 26.096C46.4238 26.096 43.4563 23.2315 43.4563 19.3148C43.4563 15.3748 46.4704 12.5369 50.488 12.5369C54.3594 12.5369 57.3502 15.1325 57.3502 19.3646C57.3535 19.66 57.3037 20.0782 57.2804 20.3969ZM47.2579 18.1696H53.7513C53.4821 16.5067 52.2326 15.4279 50.5179 15.4279C48.7766 15.4279 47.5271 16.4801 47.2579 18.1696Z" fill="white"/>
<path d="M66.4422 25.9034L63.5511 21.8639L60.5603 25.9034H56.3965L61.4675 19.2682L56.566 12.736H60.8561L63.6475 16.5763L66.5154 12.736H70.5828L65.6812 19.172L70.7789 25.9034H66.4422Z" fill="white"/>
<path d="M92.7612 18.4086V25.9233H89.1822V24.2836C88.4711 25.4819 87.0986 26.1192 85.1646 26.1192C82.0774 26.1192 80.2397 24.4064 80.2397 22.1294C80.2397 19.8026 81.8814 18.1895 85.899 18.1895H88.9363C88.9363 16.5498 87.9693 16.1913 85.909 16.1913C84.5133 16.1913 84.4867 16.2179 81.991 16.2245L82.011 13.2372C84.8223 13.2405 84.3338 13.2239 86.4473 13.2372C90.4716 13.2637 92.7612 14.4188 92.7612 18.4086ZM88.9396 21.1303V20.4167H86.3177C84.5299 20.4167 83.9649 21.0772 83.9649 21.9602C83.9649 22.9161 84.7725 23.5501 86.1216 23.5501C87.3944 23.5501 88.9396 22.7535 88.9396 21.1303Z" fill="white"/>
<path d="M98.3174 8.76941H94.4958V25.9034H98.3174V8.76941Z" fill="white"/>
<path d="M103.728 8.76941H99.906V25.9034H103.728V8.76941Z" fill="white"/>
<path d="M0 3.33917L5.78886 0L20.8392 8.68316L15.0504 12.0223L0 3.33917Z" fill="white"/>
<path d="M15.0503 29.3754L20.8391 26.0296V8.68323L15.0503 12.0224V29.3754Z" fill="#4664AE"/>
<path d="M4.55591 18.07L10.5043 14.6345L4.55591 11.2157V18.07Z" fill="#4664AE"/>
<path d="M4.55591 18.0701L10.5043 21.5022V14.6346L4.55591 18.0701Z" fill="white"/>
<path d="M71.8888 13.0214L73.9691 10.3926H75.7071L75.6439 13.2372H78.9271V16.1747H75.6439V21.5353C75.6439 22.6605 76.2554 23.2746 77.2855 23.2746C77.8505 23.2746 78.4121 23.102 78.8275 22.7833L79.8576 25.4753C79.0734 26.0395 77.9202 26.3084 76.7472 26.3084C73.6368 26.3084 71.8224 24.7185 71.8224 21.5851V16.1747L69.3666 16.1249L71.8888 13.0214Z" fill="white"/>
<path d="M26.7775 30.8292C26.9204 30.8956 27.0301 30.9885 27.1099 31.1113C27.1863 31.2308 27.2262 31.3769 27.2262 31.5428C27.2262 31.7055 27.1863 31.8482 27.1099 31.971C27.0334 32.0938 26.9238 32.1868 26.7775 32.2498C26.6346 32.3162 26.4652 32.3461 26.2724 32.3461H25.8305V32.9601H25.322V30.7296H26.2724C26.4652 30.7296 26.6346 30.7628 26.7775 30.8292ZM26.5914 31.825C26.6712 31.7586 26.7111 31.6623 26.7111 31.5395C26.7111 31.4134 26.6712 31.3171 26.5914 31.2507C26.5117 31.1844 26.3954 31.1512 26.2425 31.1512H25.8305V31.9245H26.2425C26.3954 31.9245 26.5117 31.8913 26.5914 31.825Z" fill="white"/>
<path d="M29.7651 32.9601L29.3431 32.3394H29.3165H28.8745V32.9601H28.3661V30.7296H29.3165C29.5126 30.7296 29.6787 30.7628 29.8216 30.8292C29.9645 30.8956 30.0742 30.9885 30.1506 31.1113C30.227 31.2308 30.2669 31.3769 30.2669 31.5428C30.2669 31.7088 30.227 31.8515 30.1506 31.971C30.0708 32.0905 29.9612 32.1834 29.8183 32.2465L30.3101 32.9635H29.7651V32.9601ZM29.6355 31.2507C29.5558 31.1844 29.4395 31.1512 29.2866 31.1512H28.8745V31.9279H29.2866C29.4395 31.9279 29.5558 31.8947 29.6355 31.825C29.7153 31.7586 29.7552 31.6623 29.7552 31.5395C29.7552 31.4167 29.7153 31.3204 29.6355 31.2507Z" fill="white"/>
<path d="M33.1514 32.5486V32.9635H31.4532V30.7296H33.1115V31.1445H31.9584V31.6291H32.9752V32.0308H31.9584V32.5486H33.1514Z" fill="white"/>
<path d="M34.8461 31.1445V31.7353H35.8596V32.1503H34.8461V32.9601H34.3376V30.7296H35.9959V31.1445H34.8461Z" fill="white"/>
<path d="M38.4783 32.4822H37.4614L37.2687 32.9601H36.7469L37.7239 30.7296H38.2257L39.2061 32.9601H38.6744L38.4783 32.4822ZM38.3188 32.0905L37.9699 31.2375L37.6209 32.0905H38.3188Z" fill="white"/>
<path d="M42.1203 32.0042C42.1901 32.0971 42.2266 32.2166 42.2266 32.3527C42.2266 32.5485 42.1535 32.6979 42.004 32.8041C41.8545 32.9103 41.6385 32.9635 41.3527 32.9635H40.2195V30.7329H41.2895C41.5554 30.7329 41.7614 30.786 41.9043 30.8889C42.0472 30.9918 42.1203 31.1345 42.1203 31.3138C42.1203 31.4233 42.0937 31.5196 42.0439 31.6026C41.994 31.6889 41.9209 31.7552 41.8279 31.8017C41.9508 31.8415 42.0505 31.9079 42.1203 32.0042ZM40.7213 31.1213V31.6457H41.2264C41.3527 31.6457 41.4457 31.6225 41.5122 31.5793C41.5753 31.5362 41.6085 31.4698 41.6085 31.3802C41.6085 31.2939 41.5753 31.2275 41.5122 31.1843C41.449 31.1412 41.3527 31.1179 41.2264 31.1179H40.7213V31.1213ZM41.6152 32.5054C41.6817 32.4622 41.7182 32.3925 41.7182 32.2963C41.7182 32.1104 41.582 32.0208 41.3128 32.0208H40.7213V32.5718H41.3128C41.4457 32.5718 41.5454 32.5519 41.6152 32.5054Z" fill="white"/>
<path d="M44.7922 32.9601L44.3702 32.3394H44.3436H43.9016V32.9601H43.3932V30.7296H44.3436C44.5397 30.7296 44.7058 30.7628 44.8487 30.8292C44.9916 30.8956 45.1013 30.9885 45.1777 31.1113C45.2541 31.2308 45.294 31.3769 45.294 31.5428C45.294 31.7088 45.2541 31.8515 45.1777 31.971C45.0979 32.0905 44.9883 32.1834 44.8454 32.2465L45.3372 32.9635H44.7922V32.9601ZM44.6659 31.2507C44.5862 31.1844 44.4699 31.1512 44.317 31.1512H43.9049V31.9279H44.317C44.4699 31.9279 44.5862 31.8947 44.6659 31.825C44.7457 31.7586 44.7856 31.6623 44.7856 31.5395C44.7822 31.4167 44.7424 31.3204 44.6659 31.2507Z" fill="white"/>
<path d="M46.9888 30.7296H46.4803V32.9601H46.9888V30.7296Z" fill="white"/>
<path d="M48.7367 32.8507C48.5572 32.7511 48.4144 32.615 48.3113 32.4391C48.2083 32.2631 48.1552 32.064 48.1552 31.8449C48.1552 31.6258 48.2083 31.4267 48.3113 31.2508C48.4144 31.0749 48.5572 30.9388 48.7367 30.8392C48.9161 30.7396 49.1189 30.6898 49.3448 30.6898C49.5342 30.6898 49.707 30.723 49.8599 30.7927C50.0128 30.8624 50.1424 30.9587 50.2454 31.0848L49.9197 31.3902C49.7702 31.2176 49.5874 31.128 49.3681 31.128C49.2318 31.128 49.1122 31.1578 49.0059 31.2176C48.8995 31.2773 48.8164 31.3636 48.7566 31.4698C48.6968 31.5794 48.6669 31.7022 48.6669 31.8383C48.6669 31.9777 48.6968 32.1005 48.7566 32.2067C48.8164 32.3163 48.8995 32.3992 49.0059 32.459C49.1122 32.5187 49.2352 32.5486 49.3681 32.5486C49.5874 32.5486 49.7702 32.459 49.9197 32.2831L50.2454 32.5884C50.1424 32.7179 50.0128 32.8175 49.8566 32.8838C49.7004 32.9502 49.5309 32.9867 49.3382 32.9867C49.1189 33 48.9161 32.9502 48.7367 32.8507Z" fill="white"/>
<path d="M52.7709 32.4822H51.754L51.5613 32.9601H51.0396L52.0165 30.7296H52.5183L53.4986 32.9601H52.9669L52.7709 32.4822ZM52.6114 32.0905L52.2625 31.2375L51.9135 32.0905H52.6114Z" fill="white"/>
<path d="M54.8545 31.1512H54.1533V30.7296H56.0641V31.1512H55.3629V32.9635H54.8545V31.1512Z" fill="white"/>
<path d="M58.819 32.5486V32.9635H57.1208V30.7296H58.7791V31.1445H57.626V31.6291H58.6428V32.0308H57.626V32.5486H58.819Z" fill="white"/>
<path d="M60.0054 30.7296H61.0023C61.2416 30.7296 61.4509 30.7761 61.6337 30.869C61.8165 30.962 61.9594 31.0914 62.059 31.2607C62.1621 31.43 62.2119 31.6225 62.2119 31.8482C62.2119 32.0706 62.1621 32.2664 62.059 32.4357C61.9594 32.605 61.8165 32.7344 61.6337 32.8274C61.4509 32.9203 61.2416 32.9668 61.0023 32.9668H60.0054V30.7296ZM60.9757 32.5386C61.195 32.5386 61.3712 32.4755 61.5008 32.3527C61.6304 32.2299 61.6968 32.0606 61.6968 31.8482C61.6968 31.6358 61.6304 31.4665 61.5008 31.3437C61.3712 31.2175 61.195 31.1578 60.9757 31.1578H60.5105V32.5419H60.9757V32.5386Z" fill="white"/>
<path d="M66.7447 32.5486V32.9635H65.0466V30.7296H66.7049V31.1445H65.5517V31.6291H66.5686V32.0308H65.5517V32.5486H66.7447Z" fill="white"/>
<path d="M69.2901 32.9601L68.7617 32.1868L68.24 32.9601H67.6584L68.4693 31.8283L67.6983 30.7296H68.2765L68.7817 31.4532L69.2768 30.7296H69.8251L69.0608 31.8084L69.8783 32.9601H69.2901Z" fill="white"/>
<path d="M71.2907 31.1512H70.5895V30.7296H72.5003V31.1512H71.7958V32.9635H71.2907V31.1512Z" fill="white"/>
<path d="M75.2518 32.5486V32.9635H73.5537V30.7296H75.212V31.1445H74.0588V31.6291H75.079V32.0308H74.0588V32.5486H75.2518Z" fill="white"/>
<path d="M77.8371 32.9601L77.4151 32.3394H77.3885H76.9465V32.9601H76.4381V30.7296H77.3885C77.5846 30.7296 77.7507 30.7628 77.8936 30.8292C78.0365 30.8956 78.1462 30.9885 78.2259 31.1113C78.3024 31.2308 78.3422 31.3769 78.3422 31.5428C78.3422 31.7088 78.3024 31.8515 78.2259 31.971C78.1462 32.0905 78.0365 32.1834 77.8936 32.2465L78.3854 32.9635H77.8371V32.9601ZM77.7075 31.2507C77.6278 31.1844 77.5115 31.1512 77.3586 31.1512H76.9465V31.9279H77.3586C77.5115 31.9279 77.6278 31.8947 77.7075 31.825C77.7873 31.7586 77.8272 31.6623 77.8272 31.5395C77.8272 31.4167 77.7873 31.3204 77.7075 31.2507Z" fill="white"/>
<path d="M80.0337 30.7296H79.5253V32.9601H80.0337V30.7296Z" fill="white"/>
<path d="M81.7816 32.8506C81.5989 32.751 81.456 32.6116 81.353 32.439C81.2499 32.2631 81.1968 32.0673 81.1968 31.8482C81.1968 31.6291 81.2499 31.4333 81.353 31.2574C81.456 31.0814 81.5989 30.9454 81.7816 30.8458C81.9644 30.7462 82.1705 30.6964 82.3964 30.6964C82.6257 30.6964 82.8284 30.7462 83.0112 30.8458C83.194 30.9454 83.3369 31.0848 83.4399 31.2574C83.5429 31.4333 83.5961 31.6291 83.5961 31.8482C83.5961 32.0673 83.5429 32.2631 83.4399 32.439C83.3369 32.6149 83.194 32.751 83.0112 32.8506C82.8284 32.9502 82.6257 33 82.3964 33C82.1705 33 81.9644 32.9502 81.7816 32.8506ZM82.7487 32.4689C82.8517 32.4091 82.9348 32.3228 82.9946 32.2166C83.0544 32.1071 83.0843 31.9843 83.0843 31.8482C83.0843 31.7088 83.0544 31.586 82.9946 31.4798C82.9348 31.3702 82.8517 31.2872 82.7487 31.2275C82.6457 31.1677 82.526 31.1379 82.3964 31.1379C82.2668 31.1379 82.1505 31.1677 82.0442 31.2275C81.9412 31.2872 81.8581 31.3735 81.7983 31.4798C81.7384 31.5893 81.7085 31.7121 81.7085 31.8482C81.7085 31.9876 81.7384 32.1104 81.7983 32.2166C81.8581 32.3262 81.9412 32.4091 82.0442 32.4689C82.1505 32.5286 82.2668 32.5585 82.3964 32.5585C82.5293 32.5618 82.6457 32.5286 82.7487 32.4689Z" fill="white"/>
<path d="M86.1615 32.9601L85.7395 32.3394H85.7129H85.2709V32.9601H84.7625V30.7296H85.7129C85.9089 30.7296 86.0751 30.7628 86.218 30.8292C86.3609 30.8956 86.4705 30.9885 86.547 31.1113C86.6234 31.2308 86.6633 31.3769 86.6633 31.5428C86.6633 31.7088 86.6234 31.8515 86.547 31.971C86.4672 32.0905 86.3576 32.1834 86.2147 32.2465L86.7065 32.9635H86.1615V32.9601ZM86.0319 31.2507C85.9521 31.1844 85.8358 31.1512 85.683 31.1512H85.2709V31.9279H85.683C85.8358 31.9279 85.9521 31.8947 86.0319 31.825C86.1116 31.7586 86.1515 31.6623 86.1515 31.5395C86.1515 31.4167 86.1116 31.3204 86.0319 31.2507Z" fill="white"/>
<path d="M92.8343 30.7296L92.1165 32.9635H91.5715L91.0896 31.4499L90.5911 32.9635H90.0495L89.3284 30.7296H89.8534L90.3486 32.2996L90.867 30.7296H91.3355L91.8373 32.3129L92.3491 30.7296H92.8343Z" fill="white"/>
<path d="M95.2702 32.4822H94.2533L94.0605 32.9601H93.5388L94.5158 30.7296H95.0176L95.9979 32.9601H95.4662L95.2702 32.4822ZM95.1106 32.0905L94.7617 31.2375L94.4128 32.0905H95.1106Z" fill="white"/>
<path d="M97.0115 30.7296H97.5166V32.5419H98.6165V32.9635H97.0115V30.7296Z" fill="white"/>
<path d="M99.6866 30.7296H100.192V32.5419H101.292V32.9635H99.6866V30.7296Z" fill="white"/>
<path d="M102.564 32.927C102.402 32.8805 102.272 32.8174 102.176 32.7411L102.348 32.3527C102.442 32.4224 102.554 32.4789 102.684 32.522C102.814 32.5652 102.943 32.5851 103.073 32.5851C103.216 32.5851 103.325 32.5619 103.392 32.5187C103.462 32.4756 103.495 32.4158 103.495 32.3461C103.495 32.293 103.475 32.2498 103.435 32.2133C103.395 32.1768 103.342 32.1503 103.279 32.1304C103.216 32.1104 103.129 32.0872 103.02 32.0606C102.854 32.0208 102.717 31.981 102.611 31.9412C102.505 31.9013 102.412 31.8349 102.335 31.7453C102.259 31.6557 102.222 31.5362 102.222 31.3868C102.222 31.2574 102.255 31.1412 102.325 31.035C102.395 30.9288 102.498 30.8458 102.638 30.7861C102.777 30.723 102.947 30.6931 103.146 30.6931C103.286 30.6931 103.422 30.7097 103.555 30.7429C103.688 30.7761 103.807 30.8259 103.907 30.8889L103.751 31.2806C103.548 31.1644 103.345 31.1047 103.143 31.1047C103 31.1047 102.897 31.1279 102.827 31.1744C102.761 31.2209 102.727 31.2839 102.727 31.3603C102.727 31.4366 102.767 31.4931 102.844 31.5296C102.92 31.5661 103.04 31.6026 103.203 31.6391C103.369 31.6789 103.505 31.7188 103.611 31.7619C103.718 31.8017 103.811 31.8648 103.887 31.9544C103.963 32.0407 104 32.1602 104 32.3096C104 32.4357 103.967 32.5519 103.894 32.6581C103.824 32.7643 103.718 32.8473 103.578 32.9071C103.438 32.9668 103.269 33 103.066 33C102.897 33 102.727 32.9768 102.564 32.927Z" fill="white"/>
</svg>
