<svg width="120" height="38" viewBox="0 0 120 38" fill="none" xmlns="http://www.w3.org/2000/svg">
<path d="M29.0759 10.0981H38.0675C44.5437 10.0981 48.9801 13.9891 48.9801 19.9632C48.9801 25.9372 44.5399 29.8282 38.0675 29.8282H29.0759V10.0981ZM37.8413 26.0786C41.7715 26.0786 44.3443 23.7395 44.3443 19.9632C44.3443 16.1869 41.7715 13.8477 37.8413 13.8477H33.658V26.0786H37.8413Z" fill="white"/>
<path d="M66.0928 23.4873H54.5859C55.0115 25.3754 56.6219 26.5297 58.9379 26.5297C60.5483 26.5297 61.6104 25.9526 62.1779 25.0353L65.9509 25.0811C65.5483 28.2077 61.5682 30.05 58.8228 30.05C53.5659 30.05 50.1418 26.7514 50.1418 22.2413C50.1418 17.7044 53.6196 14.4364 58.2553 14.4364C62.7224 14.4364 66.1733 17.4253 66.1733 22.2986C66.1771 22.6388 66.1196 23.1204 66.0928 23.4873ZM54.5284 20.9226H62.0207C61.7101 19.0077 60.2684 17.7655 58.2899 17.7655C56.2807 17.7655 54.8389 18.9771 54.5284 20.9226Z" fill="white"/>
<path d="M76.664 29.8282L73.3281 25.1766L69.8772 29.8282H65.0728L70.924 22.1877L65.2683 14.6656H70.2185L73.4393 19.0879L76.7484 14.6656H81.4416L75.7859 22.0768L81.6678 29.8282H76.664Z" fill="white"/>
<path d="M107.032 21.1978V29.8512H102.903V27.963C102.082 29.3428 100.499 30.0767 98.267 30.0767C94.7049 30.0767 92.5845 28.1044 92.5845 25.4824C92.5845 22.8031 94.4786 20.9455 99.1144 20.9455H102.619C102.619 19.0574 101.503 18.6446 99.1259 18.6446C97.5155 18.6446 97.4848 18.6751 94.6052 18.6828L94.6282 15.2428C97.8721 15.2467 97.3084 15.2275 99.7471 15.2428C104.39 15.2734 107.032 16.6035 107.032 21.1978ZM102.623 24.332V23.5102H99.5975C97.5346 23.5102 96.8828 24.2708 96.8828 25.2875C96.8828 26.3883 97.8145 27.1183 99.3713 27.1183C100.84 27.1183 102.623 26.201 102.623 24.332Z" fill="white"/>
<path d="M113.443 10.0981H109.034V29.8282H113.443V10.0981Z" fill="white"/>
<path d="M119.686 10.0981H115.276V29.8282H119.686V10.0981Z" fill="white"/>
<path d="M0 3.8451L6.67945 0L24.0452 9.99879L17.3658 13.8439L0 3.8451Z" fill="white"/>
<path d="M17.3657 33.8262L24.0452 29.9734V9.99878L17.3657 13.8439V33.8262Z" fill="#CDCDCD"/>
<path d="M5.25684 20.8078L12.1203 16.8519L5.25684 12.915V20.8078Z" fill="#CDCDCD"/>
<path d="M5.25684 20.8079L12.1203 24.76V16.8519L5.25684 20.8079Z" fill="white"/>
<path d="M82.9486 14.9943L85.3489 11.9672H87.3543L87.2814 15.2428H91.0698V18.6254H87.2814V24.7982C87.2814 26.0939 87.9869 26.801 89.1756 26.801C89.8274 26.801 90.4754 26.6022 90.9547 26.2353L92.1434 29.3351C91.2385 29.9849 89.908 30.2945 88.5544 30.2945C84.9655 30.2945 82.8719 28.4636 82.8719 24.8555V18.6254L80.0383 18.568L82.9486 14.9943Z" fill="white"/>
<path d="M30.8972 35.5003C31.0621 35.5767 31.1886 35.6837 31.2807 35.8252C31.3688 35.9628 31.4149 36.1309 31.4149 36.322C31.4149 36.5093 31.3688 36.6737 31.2807 36.8151C31.1925 36.9565 31.0659 37.0635 30.8972 37.1362C30.7323 37.2126 30.5368 37.247 30.3144 37.247H29.8044V37.9541H29.2178V35.3856H30.3144C30.5368 35.3856 30.7323 35.4238 30.8972 35.5003ZM30.6825 36.6469C30.7745 36.5705 30.8205 36.4596 30.8205 36.3182C30.8205 36.173 30.7745 36.0621 30.6825 35.9857C30.5905 35.9093 30.4563 35.871 30.2799 35.871H29.8044V36.7616H30.2799C30.4563 36.7616 30.5905 36.7234 30.6825 36.6469Z" fill="white"/>
<path d="M34.3442 37.9541L33.8573 37.2394H33.8266H33.3166V37.9541H32.73V35.3856H33.8266C34.0528 35.3856 34.2446 35.4238 34.4094 35.5003C34.5743 35.5767 34.7008 35.6837 34.789 35.8252C34.8772 35.9628 34.9232 36.1309 34.9232 36.322C34.9232 36.5132 34.8772 36.6775 34.789 36.8151C34.697 36.9527 34.5705 37.0597 34.4056 37.1323L34.9731 37.9579H34.3442V37.9541ZM34.1947 35.9857C34.1027 35.9093 33.9685 35.871 33.7921 35.871H33.3166V36.7654H33.7921C33.9685 36.7654 34.1027 36.7272 34.1947 36.6469C34.2867 36.5705 34.3327 36.4596 34.3327 36.3182C34.3327 36.1768 34.2867 36.066 34.1947 35.9857Z" fill="white"/>
<path d="M38.2516 37.4802V37.9579H36.2922V35.3856H38.2056V35.8634H36.8751V36.4214H38.0484V36.8839H36.8751V37.4802H38.2516Z" fill="white"/>
<path d="M40.207 35.8634V36.5437H41.3765V37.0215H40.207V37.9541H39.6204V35.3856H41.5337V35.8634H40.207Z" fill="white"/>
<path d="M44.3981 37.4037H43.2248L43.0024 37.9541H42.4004L43.5277 35.3856H44.1067L45.2378 37.9541H44.6243L44.3981 37.4037ZM44.214 36.9527L43.8114 35.9704L43.4088 36.9527H44.214Z" fill="white"/>
<path d="M48.6005 36.8533C48.681 36.9603 48.7232 37.0979 48.7232 37.2546C48.7232 37.4801 48.6388 37.6521 48.4663 37.7744C48.2937 37.8968 48.0445 37.9579 47.7147 37.9579H46.4072V35.3894H47.6419C47.9486 35.3894 48.1864 35.4506 48.3513 35.569C48.5161 35.6875 48.6005 35.8519 48.6005 36.0583C48.6005 36.1844 48.5698 36.2953 48.5123 36.3908C48.4548 36.4902 48.3704 36.5666 48.2631 36.6201C48.4049 36.666 48.52 36.7425 48.6005 36.8533ZM46.9862 35.8366V36.4405H47.569C47.7147 36.4405 47.8221 36.4137 47.8988 36.3641C47.9716 36.3144 48.01 36.2379 48.01 36.1347C48.01 36.0354 47.9716 35.9589 47.8988 35.9092C47.8259 35.8595 47.7147 35.8328 47.569 35.8328H46.9862V35.8366ZM48.0177 37.4304C48.0944 37.3808 48.1365 37.3005 48.1365 37.1897C48.1365 36.9756 47.9793 36.8724 47.6687 36.8724H46.9862V37.5069H47.6687C47.8221 37.5069 47.9371 37.484 48.0177 37.4304Z" fill="white"/>
<path d="M51.6834 37.9541L51.1964 37.2394H51.1657H50.6557V37.9541H50.0691V35.3856H51.1657C51.3919 35.3856 51.5837 35.4238 51.7485 35.5003C51.9134 35.5767 52.04 35.6837 52.1281 35.8252C52.2163 35.9628 52.2623 36.1309 52.2623 36.322C52.2623 36.5132 52.2163 36.6775 52.1281 36.8151C52.0361 36.9527 51.9096 37.0597 51.7447 37.1323L52.3122 37.9579H51.6834V37.9541ZM51.5377 35.9857C51.4456 35.9093 51.3114 35.871 51.135 35.871H50.6596V36.7654H51.135C51.3114 36.7654 51.4456 36.7272 51.5377 36.6469C51.6297 36.5705 51.6757 36.4596 51.6757 36.3182C51.6719 36.1768 51.6258 36.066 51.5377 35.9857Z" fill="white"/>
<path d="M54.2178 35.3856H53.6311V37.9541H54.2178V35.3856Z" fill="white"/>
<path d="M56.2345 37.828C56.0274 37.7133 55.8626 37.5566 55.7437 37.354C55.6248 37.1514 55.5635 36.9221 55.5635 36.6698C55.5635 36.4176 55.6248 36.1882 55.7437 35.9857C55.8626 35.7831 56.0274 35.6264 56.2345 35.5117C56.4415 35.3971 56.6754 35.3397 56.9362 35.3397C57.1547 35.3397 57.3541 35.3779 57.5305 35.4582C57.7069 35.5385 57.8564 35.6493 57.9753 35.7946L57.5995 36.1462C57.427 35.9474 57.2161 35.8442 56.963 35.8442C56.8058 35.8442 56.6678 35.8786 56.5451 35.9474C56.4224 36.0162 56.3265 36.1156 56.2575 36.2379C56.1885 36.3641 56.154 36.5055 56.154 36.6622C56.154 36.8227 56.1885 36.9641 56.2575 37.0865C56.3265 37.2126 56.4224 37.3081 56.5451 37.3769C56.6678 37.4457 56.8096 37.4801 56.963 37.4801C57.2161 37.4801 57.427 37.3769 57.5995 37.1744L57.9753 37.526C57.8564 37.6751 57.7069 37.7897 57.5267 37.8662C57.3464 37.9426 57.1509 37.9847 56.9285 37.9847C56.6754 37.9999 56.4415 37.9426 56.2345 37.828Z" fill="white"/>
<path d="M60.8895 37.4037H59.7162L59.4938 37.9541H58.8918L60.0191 35.3856H60.5981L61.7293 37.9541H61.1158L60.8895 37.4037ZM60.7055 36.9527L60.3029 35.9704L59.9003 36.9527H60.7055Z" fill="white"/>
<path d="M63.2937 35.871H62.4846V35.3856H64.6894V35.871H63.8803V37.9579H63.2937V35.871Z" fill="white"/>
<path d="M67.8681 37.4802V37.9579H65.9087V35.3856H67.8221V35.8634H66.4915V36.4214H67.6648V36.8839H66.4915V37.4802H67.8681Z" fill="white"/>
<path d="M69.2368 35.3856H70.3871C70.6632 35.3856 70.9048 35.4391 71.1156 35.5462C71.3265 35.6532 71.4914 35.8022 71.6064 35.9972C71.7253 36.1921 71.7828 36.4138 71.7828 36.6737C71.7828 36.9298 71.7253 37.1553 71.6064 37.3502C71.4914 37.5451 71.3265 37.6942 71.1156 37.8012C70.9048 37.9083 70.6632 37.9618 70.3871 37.9618H69.2368V35.3856ZM70.3564 37.4687C70.6095 37.4687 70.8127 37.3961 70.9623 37.2547C71.1118 37.1132 71.1885 36.9183 71.1885 36.6737C71.1885 36.4291 71.1118 36.2341 70.9623 36.0927C70.8127 35.9475 70.6095 35.8787 70.3564 35.8787H69.8196V37.4725H70.3564V37.4687Z" fill="white"/>
<path d="M77.0131 37.4802V37.9579H75.0537V35.3856H76.9671V35.8634H75.6365V36.4214H76.8098V36.8839H75.6365V37.4802H77.0131Z" fill="white"/>
<path d="M79.95 37.9541L79.3404 37.0635L78.7384 37.9541H78.0674L79.003 36.6508L78.1134 35.3856H78.7806L79.3634 36.2189L79.9347 35.3856H80.5674L79.6855 36.6278L80.6287 37.9541H79.95Z" fill="white"/>
<path d="M82.2585 35.871H81.4495V35.3856H83.6542V35.871H82.8413V37.9579H82.2585V35.871Z" fill="white"/>
<path d="M86.829 37.4802V37.9579H84.8696V35.3856H86.783V35.8634H85.4525V36.4214H86.6296V36.8839H85.4525V37.4802H86.829Z" fill="white"/>
<path d="M89.8123 37.9541L89.3253 37.2394H89.2946H88.7847V37.9541H88.198V35.3856H89.2946C89.5209 35.3856 89.7126 35.4238 89.8774 35.5003C90.0423 35.5767 90.1689 35.6837 90.2609 35.8252C90.3491 35.9628 90.3951 36.1309 90.3951 36.322C90.3951 36.5132 90.3491 36.6775 90.2609 36.8151C90.1689 36.9527 90.0423 37.0597 89.8774 37.1323L90.4449 37.9579H89.8123V37.9541ZM89.6627 35.9857C89.5707 35.9093 89.4365 35.871 89.2601 35.871H88.7847V36.7654H89.2601C89.4365 36.7654 89.5707 36.7272 89.6627 36.6469C89.7547 36.5705 89.8008 36.4596 89.8008 36.3182C89.8008 36.1768 89.7547 36.066 89.6627 35.9857Z" fill="white"/>
<path d="M92.3467 35.3856H91.76V37.9541H92.3467V35.3856Z" fill="white"/>
<path d="M94.3636 37.828C94.1527 37.7133 93.9878 37.5528 93.8689 37.354C93.7501 37.1515 93.6887 36.926 93.6887 36.6737C93.6887 36.4214 93.7501 36.1959 93.8689 35.9934C93.9878 35.7908 94.1527 35.6341 94.3636 35.5194C94.5745 35.4047 94.8122 35.3474 95.0729 35.3474C95.3375 35.3474 95.5714 35.4047 95.7823 35.5194C95.9932 35.6341 96.158 35.7946 96.2769 35.9934C96.3958 36.1959 96.4571 36.4214 96.4571 36.6737C96.4571 36.926 96.3958 37.1515 96.2769 37.354C96.158 37.5566 95.9932 37.7133 95.7823 37.828C95.5714 37.9427 95.3375 38 95.0729 38C94.8122 38 94.5745 37.9427 94.3636 37.828ZM95.4794 37.3884C95.5982 37.3196 95.6941 37.2203 95.7631 37.098C95.8321 36.9718 95.8666 36.8304 95.8666 36.6737C95.8666 36.5132 95.8321 36.3717 95.7631 36.2494C95.6941 36.1233 95.5982 36.0278 95.4794 35.959C95.3605 35.8902 95.2225 35.8558 95.0729 35.8558C94.9234 35.8558 94.7892 35.8902 94.6665 35.959C94.5476 36.0278 94.4518 36.1271 94.3827 36.2494C94.3137 36.3756 94.2792 36.517 94.2792 36.6737C94.2792 36.8342 94.3137 36.9757 94.3827 37.098C94.4518 37.2241 94.5476 37.3196 94.6665 37.3884C94.7892 37.4572 94.9234 37.4916 95.0729 37.4916C95.2263 37.4955 95.3605 37.4572 95.4794 37.3884Z" fill="white"/>
<path d="M99.417 37.9541L98.93 37.2394H98.8994H98.3894V37.9541H97.8027V35.3856H98.8994C99.1256 35.3856 99.3173 35.4238 99.4822 35.5003C99.6471 35.5767 99.7736 35.6837 99.8618 35.8252C99.95 35.9628 99.996 36.1309 99.996 36.322C99.996 36.5132 99.95 36.6775 99.8618 36.8151C99.7698 36.9527 99.6432 37.0597 99.4784 37.1323L100.046 37.9579H99.417V37.9541ZM99.2675 35.9857C99.1754 35.9093 99.0412 35.871 98.8649 35.871H98.3894V36.7654H98.8649C99.0412 36.7654 99.1754 36.7272 99.2675 36.6469C99.3595 36.5705 99.4055 36.4596 99.4055 36.3182C99.4055 36.1768 99.3595 36.066 99.2675 35.9857Z" fill="white"/>
<path d="M107.117 35.3856L106.288 37.9579H105.659L105.103 36.215L104.528 37.9579H103.903L103.071 35.3856H103.677L104.248 37.1935L104.847 35.3856H105.387L105.966 37.2088L106.557 35.3856H107.117Z" fill="white"/>
<path d="M109.927 37.4037H108.754L108.531 37.9541H107.929L109.057 35.3856H109.636L110.767 37.9541H110.153L109.927 37.4037ZM109.743 36.9527L109.34 35.9704L108.938 36.9527H109.743Z" fill="white"/>
<path d="M111.936 35.3856H112.519V37.4725H113.788V37.9579H111.936V35.3856Z" fill="white"/>
<path d="M115.023 35.3856H115.606V37.4725H116.875V37.9579H115.023V35.3856Z" fill="white"/>
<path d="M118.343 37.9159C118.156 37.8624 118.006 37.7898 117.895 37.7019L118.094 37.2547C118.202 37.335 118.332 37.4 118.481 37.4496C118.631 37.4993 118.781 37.5223 118.93 37.5223C119.095 37.5223 119.221 37.4955 119.298 37.4458C119.379 37.3961 119.417 37.3273 119.417 37.2471C119.417 37.1859 119.394 37.1362 119.348 37.0942C119.302 37.0521 119.241 37.0216 119.168 36.9986C119.095 36.9757 118.995 36.9489 118.869 36.9184C118.677 36.8725 118.52 36.8266 118.397 36.7808C118.274 36.7349 118.167 36.6585 118.079 36.5553C117.991 36.4521 117.948 36.3145 117.948 36.1425C117.948 35.9934 117.987 35.8596 118.067 35.7373C118.148 35.615 118.267 35.5194 118.428 35.4506C118.589 35.378 118.784 35.3436 119.014 35.3436C119.175 35.3436 119.333 35.3627 119.486 35.401C119.639 35.4392 119.777 35.4965 119.892 35.5691L119.712 36.0201C119.478 35.8864 119.244 35.8176 119.011 35.8176C118.846 35.8176 118.727 35.8443 118.646 35.8978C118.57 35.9514 118.531 36.024 118.531 36.1119C118.531 36.1998 118.577 36.2648 118.665 36.3068C118.754 36.3489 118.892 36.3909 119.08 36.4329C119.271 36.4788 119.429 36.5247 119.551 36.5744C119.674 36.6202 119.781 36.6928 119.869 36.796C119.958 36.8954 120 37.033 120 37.205C120 37.3503 119.961 37.484 119.877 37.6063C119.797 37.7287 119.674 37.8242 119.513 37.893C119.352 37.9618 119.156 38 118.922 38C118.727 38 118.531 37.9733 118.343 37.9159Z" fill="white"/>
</svg>
