<svg width="47" height="62" viewBox="0 0 47 62" fill="none" xmlns="http://www.w3.org/2000/svg">
<path d="M43.0674 7.95077C35.6872 7.95077 28.8997 5.28593 23.6386 0.876831C18.3694 5.28593 11.59 7.95077 4.20169 7.95077C2.88641 7.95077 1.59548 7.85386 0.320801 7.69236V33.7028C0.320801 47.5842 10.3965 59.2368 23.6386 61.7886C36.8726 59.2449 46.9564 47.5842 46.9564 33.7028V7.69236C45.6817 7.85386 44.3826 7.95077 43.0674 7.95077ZM23.6386 42.6502C19.0919 42.6502 15.4059 38.984 15.4059 34.4538C15.4059 33.186 15.7063 31.9828 16.2259 30.9088H16.2178L16.2828 30.7957C16.3883 30.5858 16.502 30.3839 16.6238 30.182L23.6386 17.6492L30.6534 30.182C30.7752 30.3839 30.8889 30.5858 30.9944 30.7957L31.0594 30.9088H31.0512C31.5709 31.9828 31.8713 33.1779 31.8713 34.4538C31.8713 38.976 28.1852 42.6502 23.6386 42.6502Z" fill="#3057AE"/>
</svg>
